{
	"asset":{
		"generator":"Khronos glTF Blender I/O v3.6.27",
		"version":"2.0"
	},
	"extensionsUsed":[
		"KHR_materials_unlit"
	],
	"scene":0,
	"scenes":[
		{
			"name":"Scene",
			"nodes":[
				12
			]
		}
	],
	"nodes":[
		{
			"mesh":0,
			"name":"DefaultName.003",
			"translation":[
				-0.04818013310432434,
				0.765625,
				0.318359375
			]
		},
		{
			"children":[
				0
			],
			"name":"DefaultName.002",
			"rotation":[
				0.2243930995464325,
				-0.6070765256881714,
				0.1841546595096588,
				0.73972487449646
			],
			"translation":[
				-3483486,
				5279957.5,
				692908.375
			]
		},
		{
			"children":[
				1
			],
			"name":"DefaultName.001"
		},
		{
			"mesh":1,
			"name":"DefaultName.006",
			"translation":[
				-0.11577242612838745,
				-0.0625,
				-0.04296875
			]
		},
		{
			"children":[
				3
			],
			"name":"DefaultName.005",
			"rotation":[
				0.25600823760032654,
				-0.4510985016822815,
				0.13683924078941345,
				0.843946099281311
			],
			"translation":[
				-2953156.75,
				5279957.5,
				1973236.125
			]
		},
		{
			"children":[
				4
			],
			"name":"DefaultName.004"
		},
		{
			"mesh":2,
			"name":"DefaultName.009",
			"translation":[
				-0.03202897310256958,
				-0.2890625,
				-0.001953125
			]
		},
		{
			"children":[
				6
			],
			"name":"DefaultName.008",
			"rotation":[
				0.08644341677427292,
				-0.4691269099712372,
				0.04620496556162834,
				0.8776745796203613
			],
			"translation":[
				-1037955.5625,
				6233810,
				693539.8125
			]
		},
		{
			"children":[
				7
			],
			"name":"DefaultName.007"
		},
		{
			"mesh":3,
			"name":"DefaultName.012",
			"translation":[
				0.015487834811210632,
				0.2763671875,
				-0.0927734375
			]
		},
		{
			"children":[
				9
			],
			"name":"DefaultName.011",
			"rotation":[
				0.07576829195022583,
				-0.6313385963439941,
				0.06218143180012703,
				0.769288182258606
			],
			"translation":[
				-1224352,
				6233810,
				243538.796875
			]
		},
		{
			"children":[
				10
			],
			"name":"DefaultName.010"
		},
		{
			"children":[
				2,
				5,
				8,
				11
			],
			"name":"DefaultName",
			"rotation":[
				0.7071068286895752,
				0,
				0,
				0.7071068286895752
			],
			"scale":[
				0.009999999776482582,
				0.009999999776482582,
				0.009999999776482582
			]
		}
	],
	"materials":[
		{
			"extensions":{
				"KHR_materials_unlit":{}
			},
			"name":"baza_L4X0Y6_I.png",
			"pbrMetallicRoughness":{
				"baseColorTexture":{
					"index":0,
					"texCoord":0
				},
				"metallicFactor":0,
				"roughnessFactor":0.9
			}
		},
		{
			"extensions":{
				"KHR_materials_unlit":{}
			},
			"name":"baza_L4X1Y6_I.png",
			"pbrMetallicRoughness":{
				"baseColorTexture":{
					"index":1,
					"texCoord":0
				},
				"metallicFactor":0,
				"roughnessFactor":0.9
			}
		},
		{
			"extensions":{
				"KHR_materials_unlit":{}
			},
			"name":"baza_L4X1Y7_I.png",
			"pbrMetallicRoughness":{
				"baseColorTexture":{
					"index":2,
					"texCoord":0
				},
				"metallicFactor":0,
				"roughnessFactor":0.9
			}
		},
		{
			"extensions":{
				"KHR_materials_unlit":{}
			},
			"name":"baza_L4X0Y7_I.png",
			"pbrMetallicRoughness":{
				"baseColorTexture":{
					"index":3,
					"texCoord":0
				},
				"metallicFactor":0,
				"roughnessFactor":0.9
			}
		}
	],
	"meshes":[
		{
			"name":"Mesh",
			"primitives":[
				{
					"attributes":{
						"POSITION":0,
						"NORMAL":1,
						"TEXCOORD_0":2
					},
					"indices":3,
					"material":0
				}
			]
		},
		{
			"name":"Mesh.001",
			"primitives":[
				{
					"attributes":{
						"POSITION":4,
						"NORMAL":5,
						"TEXCOORD_0":6
					},
					"indices":7,
					"material":1
				}
			]
		},
		{
			"name":"Mesh.002",
			"primitives":[
				{
					"attributes":{
						"POSITION":8,
						"NORMAL":9,
						"TEXCOORD_0":10
					},
					"indices":11,
					"material":2
				}
			]
		},
		{
			"name":"Mesh.003",
			"primitives":[
				{
					"attributes":{
						"POSITION":12,
						"NORMAL":13,
						"TEXCOORD_0":14
					},
					"indices":15,
					"material":3
				}
			]
		}
	],
	"textures":[
		{
			"sampler":0,
			"source":0
		},
		{
			"sampler":0,
			"source":1
		},
		{
			"sampler":0,
			"source":2
		},
		{
			"sampler":0,
			"source":3
		}
	],
	"images":[
		{
			"mimeType":"image/jpeg",
			"name":"baza_L4X0Y6_I.png",
			"uri":"baza_L4X0Y6_I_png.jpg"
		},
		{
			"mimeType":"image/jpeg",
			"name":"baza_L4X1Y6_I.png",
			"uri":"baza_L4X1Y6_I_png.jpg"
		},
		{
			"mimeType":"image/jpeg",
			"name":"baza_L4X1Y7_I.png",
			"uri":"baza_L4X1Y7_I_png.jpg"
		},
		{
			"mimeType":"image/jpeg",
			"name":"baza_L4X0Y7_I.png",
			"uri":"baza_L4X0Y7_I_png.jpg"
		}
	],
	"accessors":[
		{
			"bufferView":0,
			"componentType":5126,
			"count":517,
			"max":[
				881338.25,
				-315.1390686035156,
				1243432.75
			],
			"min":[
				-881338.25,
				-194882.984375,
				-1284910.625
			],
			"type":"VEC3"
		},
		{
			"bufferView":1,
			"componentType":5126,
			"count":517,
			"type":"VEC3"
		},
		{
			"bufferView":2,
			"componentType":5126,
			"count":517,
			"type":"VEC2"
		},
		{
			"bufferView":3,
			"componentType":5123,
			"count":2712,
			"type":"SCALAR"
		},
		{
			"bufferView":4,
			"componentType":5126,
			"count":517,
			"max":[
				881338.25,
				-315.1390686035156,
				1243432.75
			],
			"min":[
				-881338.25,
				-194882.984375,
				-1284910.625
			],
			"type":"VEC3"
		},
		{
			"bufferView":5,
			"componentType":5126,
			"count":517,
			"type":"VEC3"
		},
		{
			"bufferView":6,
			"componentType":5126,
			"count":517,
			"type":"VEC2"
		},
		{
			"bufferView":7,
			"componentType":5123,
			"count":2712,
			"type":"SCALAR"
		},
		{
			"bufferView":8,
			"componentType":5126,
			"count":517,
			"max":[
				477546.03125,
				-105.43465423583984,
				1247484.125
			],
			"min":[
				-477592.21875,
				-156421.703125,
				-1248337.125
			],
			"type":"VEC3"
		},
		{
			"bufferView":9,
			"componentType":5126,
			"count":517,
			"type":"VEC3"
		},
		{
			"bufferView":10,
			"componentType":5126,
			"count":517,
			"type":"VEC2"
		},
		{
			"bufferView":11,
			"componentType":5123,
			"count":2712,
			"type":"SCALAR"
		},
		{
			"bufferView":12,
			"componentType":5126,
			"count":517,
			"max":[
				477592.21875,
				-9.169011116027832,
				1247404.75
			],
			"min":[
				-477570.84375,
				-156096.3125,
				-1248337.125
			],
			"type":"VEC3"
		},
		{
			"bufferView":13,
			"componentType":5126,
			"count":517,
			"type":"VEC3"
		},
		{
			"bufferView":14,
			"componentType":5126,
			"count":517,
			"type":"VEC2"
		},
		{
			"bufferView":15,
			"componentType":5123,
			"count":2712,
			"type":"SCALAR"
		}
	],
	"bufferViews":[
		{
			"buffer":0,
			"byteLength":6204,
			"byteOffset":0,
			"target":34962
		},
		{
			"buffer":0,
			"byteLength":6204,
			"byteOffset":6204,
			"target":34962
		},
		{
			"buffer":0,
			"byteLength":4136,
			"byteOffset":12408,
			"target":34962
		},
		{
			"buffer":0,
			"byteLength":5424,
			"byteOffset":16544,
			"target":34963
		},
		{
			"buffer":0,
			"byteLength":6204,
			"byteOffset":21968,
			"target":34962
		},
		{
			"buffer":0,
			"byteLength":6204,
			"byteOffset":28172,
			"target":34962
		},
		{
			"buffer":0,
			"byteLength":4136,
			"byteOffset":34376,
			"target":34962
		},
		{
			"buffer":0,
			"byteLength":5424,
			"byteOffset":38512,
			"target":34963
		},
		{
			"buffer":0,
			"byteLength":6204,
			"byteOffset":43936,
			"target":34962
		},
		{
			"buffer":0,
			"byteLength":6204,
			"byteOffset":50140,
			"target":34962
		},
		{
			"buffer":0,
			"byteLength":4136,
			"byteOffset":56344,
			"target":34962
		},
		{
			"buffer":0,
			"byteLength":5424,
			"byteOffset":60480,
			"target":34963
		},
		{
			"buffer":0,
			"byteLength":6204,
			"byteOffset":65904,
			"target":34962
		},
		{
			"buffer":0,
			"byteLength":6204,
			"byteOffset":72108,
			"target":34962
		},
		{
			"buffer":0,
			"byteLength":4136,
			"byteOffset":78312,
			"target":34962
		},
		{
			"buffer":0,
			"byteLength":5424,
			"byteOffset":82448,
			"target":34963
		}
	],
	"samplers":[
		{
			"magFilter":9729,
			"minFilter":9987
		}
	],
	"buffers":[
		{
			"byteLength":87872,
			"uri":"L3X0Y3.bin"
		}
	]
}
