{
	"asset":{
		"generator":"Khronos glTF Blender I/O v3.6.27",
		"version":"2.0"
	},
	"extensionsUsed":[
		"KHR_materials_unlit"
	],
	"scene":0,
	"scenes":[
		{
			"name":"Scene",
			"nodes":[
				12
			]
		}
	],
	"nodes":[
		{
			"mesh":0,
			"name":"DefaultName.003",
			"translation":[
				0.04025118052959442,
				-0.0625,
				-0.25390625
			]
		},
		{
			"children":[
				0
			],
			"name":"DefaultName.002",
			"rotation":[
				0.2777850925922394,
				-0.2777850925922394,
				0.08426518738269806,
				0.9157348275184631
			],
			"translation":[
				-1973236.125,
				5279958,
				2953156.75
			]
		},
		{
			"children":[
				1
			],
			"name":"DefaultName.001"
		},
		{
			"mesh":1,
			"name":"DefaultName.006",
			"translation":[
				0.03368682041764259,
				0.09375,
				0.34765625
			]
		},
		{
			"children":[
				3
			],
			"name":"DefaultName.005",
			"rotation":[
				0.2888869047164917,
				-0.09379659593105316,
				0.028452882543206215,
				0.9523324966430664
			],
			"translation":[
				-692908.375,
				5279957.5,
				3483486
			]
		},
		{
			"children":[
				4
			],
			"name":"DefaultName.004"
		},
		{
			"mesh":2,
			"name":"DefaultName.009",
			"translation":[
				-0.0011133868247270584,
				0.1640625,
				0.001953125
			]
		},
		{
			"children":[
				6
			],
			"name":"DefaultName.008",
			"rotation":[
				0.09754518419504166,
				-0.09754518419504166,
				0.009607363492250443,
				0.9903926849365234
			],
			"translation":[
				-243538.796875,
				6233810,
				1224352
			]
		},
		{
			"children":[
				7
			],
			"name":"DefaultName.007"
		},
		{
			"mesh":3,
			"name":"DefaultName.012",
			"translation":[
				-0.0280877947807312,
				-0.3359375,
				0.029296875
			]
		},
		{
			"children":[
				9
			],
			"name":"DefaultName.011",
			"rotation":[
				0.09379657357931137,
				-0.2888868451118469,
				0.028452878817915916,
				0.9523324370384216
			],
			"translation":[
				-693539.8125,
				6233810,
				1037955.5625
			]
		},
		{
			"children":[
				10
			],
			"name":"DefaultName.010"
		},
		{
			"children":[
				2,
				5,
				8,
				11
			],
			"name":"DefaultName",
			"rotation":[
				0.7071068286895752,
				0,
				0,
				0.7071068286895752
			],
			"scale":[
				0.009999999776482582,
				0.009999999776482582,
				0.009999999776482582
			]
		}
	],
	"materials":[
		{
			"extensions":{
				"KHR_materials_unlit":{}
			},
			"name":"baza_L4X2Y6_I.png",
			"pbrMetallicRoughness":{
				"baseColorTexture":{
					"index":0,
					"texCoord":0
				},
				"metallicFactor":0,
				"roughnessFactor":0.9
			}
		},
		{
			"extensions":{
				"KHR_materials_unlit":{}
			},
			"name":"baza_L4X3Y6_I.png",
			"pbrMetallicRoughness":{
				"baseColorTexture":{
					"index":1,
					"texCoord":0
				},
				"metallicFactor":0,
				"roughnessFactor":0.9
			}
		},
		{
			"extensions":{
				"KHR_materials_unlit":{}
			},
			"name":"baza_L4X3Y7_I.png",
			"pbrMetallicRoughness":{
				"baseColorTexture":{
					"index":2,
					"texCoord":0
				},
				"metallicFactor":0,
				"roughnessFactor":0.9
			}
		},
		{
			"extensions":{
				"KHR_materials_unlit":{}
			},
			"name":"baza_L4X2Y7_I.png",
			"pbrMetallicRoughness":{
				"baseColorTexture":{
					"index":3,
					"texCoord":0
				},
				"metallicFactor":0,
				"roughnessFactor":0.9
			}
		}
	],
	"meshes":[
		{
			"name":"Mesh",
			"primitives":[
				{
					"attributes":{
						"POSITION":0,
						"NORMAL":1,
						"TEXCOORD_0":2
					},
					"indices":3,
					"material":0
				}
			]
		},
		{
			"name":"Mesh.001",
			"primitives":[
				{
					"attributes":{
						"POSITION":4,
						"NORMAL":5,
						"TEXCOORD_0":6
					},
					"indices":7,
					"material":1
				}
			]
		},
		{
			"name":"Mesh.002",
			"primitives":[
				{
					"attributes":{
						"POSITION":8,
						"NORMAL":9,
						"TEXCOORD_0":10
					},
					"indices":11,
					"material":2
				}
			]
		},
		{
			"name":"Mesh.003",
			"primitives":[
				{
					"attributes":{
						"POSITION":12,
						"NORMAL":13,
						"TEXCOORD_0":14
					},
					"indices":15,
					"material":3
				}
			]
		}
	],
	"textures":[
		{
			"sampler":0,
			"source":0
		},
		{
			"sampler":0,
			"source":1
		},
		{
			"sampler":0,
			"source":2
		},
		{
			"sampler":0,
			"source":3
		}
	],
	"images":[
		{
			"mimeType":"image/jpeg",
			"name":"baza_L4X2Y6_I.png",
			"uri":"baza_L4X2Y6_I_png.jpg"
		},
		{
			"mimeType":"image/jpeg",
			"name":"baza_L4X3Y6_I.png",
			"uri":"baza_L4X3Y6_I_png.jpg"
		},
		{
			"mimeType":"image/jpeg",
			"name":"baza_L4X3Y7_I.png",
			"uri":"baza_L4X3Y7_I_png.jpg"
		},
		{
			"mimeType":"image/jpeg",
			"name":"baza_L4X2Y7_I.png",
			"uri":"baza_L4X2Y7_I_png.jpg"
		}
	],
	"accessors":[
		{
			"bufferView":0,
			"componentType":5126,
			"count":517,
			"max":[
				881598.875,
				1622.67724609375,
				1243591.25
			],
			"min":[
				-881338.25,
				-194882.984375,
				-1284851.875
			],
			"type":"VEC3"
		},
		{
			"bufferView":1,
			"componentType":5126,
			"count":517,
			"type":"VEC3"
		},
		{
			"bufferView":2,
			"componentType":5126,
			"count":517,
			"type":"VEC2"
		},
		{
			"bufferView":3,
			"componentType":5123,
			"count":2712,
			"type":"SCALAR"
		},
		{
			"bufferView":4,
			"componentType":5126,
			"count":517,
			"max":[
				881395.125,
				28.11382293701172,
				1243575.25
			],
			"min":[
				-881598.875,
				-194481.53125,
				-1284851.875
			],
			"type":"VEC3"
		},
		{
			"bufferView":5,
			"componentType":5126,
			"count":517,
			"type":"VEC3"
		},
		{
			"bufferView":6,
			"componentType":5126,
			"count":517,
			"type":"VEC2"
		},
		{
			"bufferView":7,
			"componentType":5123,
			"count":2712,
			"type":"SCALAR"
		},
		{
			"bufferView":8,
			"componentType":5126,
			"count":517,
			"max":[
				477557.03125,
				149.22900390625,
				1247419.125
			],
			"min":[
				-477570.375,
				-156277.25,
				-1248337.125
			],
			"type":"VEC3"
		},
		{
			"bufferView":9,
			"componentType":5126,
			"count":517,
			"type":"VEC3"
		},
		{
			"bufferView":10,
			"componentType":5126,
			"count":517,
			"type":"VEC2"
		},
		{
			"bufferView":11,
			"componentType":5123,
			"count":2712,
			"type":"SCALAR"
		},
		{
			"bufferView":12,
			"componentType":5126,
			"count":517,
			"max":[
				477570.375,
				-9.169011116027832,
				1247476.375
			],
			"min":[
				-477546.03125,
				-156421.703125,
				-1248337.125
			],
			"type":"VEC3"
		},
		{
			"bufferView":13,
			"componentType":5126,
			"count":517,
			"type":"VEC3"
		},
		{
			"bufferView":14,
			"componentType":5126,
			"count":517,
			"type":"VEC2"
		},
		{
			"bufferView":15,
			"componentType":5123,
			"count":2712,
			"type":"SCALAR"
		}
	],
	"bufferViews":[
		{
			"buffer":0,
			"byteLength":6204,
			"byteOffset":0,
			"target":34962
		},
		{
			"buffer":0,
			"byteLength":6204,
			"byteOffset":6204,
			"target":34962
		},
		{
			"buffer":0,
			"byteLength":4136,
			"byteOffset":12408,
			"target":34962
		},
		{
			"buffer":0,
			"byteLength":5424,
			"byteOffset":16544,
			"target":34963
		},
		{
			"buffer":0,
			"byteLength":6204,
			"byteOffset":21968,
			"target":34962
		},
		{
			"buffer":0,
			"byteLength":6204,
			"byteOffset":28172,
			"target":34962
		},
		{
			"buffer":0,
			"byteLength":4136,
			"byteOffset":34376,
			"target":34962
		},
		{
			"buffer":0,
			"byteLength":5424,
			"byteOffset":38512,
			"target":34963
		},
		{
			"buffer":0,
			"byteLength":6204,
			"byteOffset":43936,
			"target":34962
		},
		{
			"buffer":0,
			"byteLength":6204,
			"byteOffset":50140,
			"target":34962
		},
		{
			"buffer":0,
			"byteLength":4136,
			"byteOffset":56344,
			"target":34962
		},
		{
			"buffer":0,
			"byteLength":5424,
			"byteOffset":60480,
			"target":34963
		},
		{
			"buffer":0,
			"byteLength":6204,
			"byteOffset":65904,
			"target":34962
		},
		{
			"buffer":0,
			"byteLength":6204,
			"byteOffset":72108,
			"target":34962
		},
		{
			"buffer":0,
			"byteLength":4136,
			"byteOffset":78312,
			"target":34962
		},
		{
			"buffer":0,
			"byteLength":5424,
			"byteOffset":82448,
			"target":34963
		}
	],
	"samplers":[
		{
			"magFilter":9729,
			"minFilter":9987
		}
	],
	"buffers":[
		{
			"byteLength":87872,
			"uri":"L3X1Y3.bin"
		}
	]
}
