{
	"asset":{
		"generator":"Khronos glTF Blender I/O v3.6.27",
		"version":"2.0"
	},
	"extensionsUsed":[
		"KHR_materials_unlit"
	],
	"scene":0,
	"scenes":[
		{
			"name":"Scene",
			"nodes":[
				12
			]
		}
	],
	"nodes":[
		{
			"mesh":0,
			"name":"DefaultName.003",
			"translation":[
				0.1812138855457306,
				0.546875,
				-0.142578125
			]
		},
		{
			"children":[
				0
			],
			"name":"DefaultName.002",
			"rotation":[
				0.6313385963439941,
				0.07576829195022583,
				-0.06218143180012703,
				0.769288182258606
			],
			"translation":[
				1220559.125,
				1236140.375,
				6136165
			]
		},
		{
			"children":[
				1
			],
			"name":"DefaultName.001"
		},
		{
			"mesh":1,
			"name":"DefaultName.006",
			"translation":[
				0.2074827402830124,
				0.4375,
				-0.1376953125
			]
		},
		{
			"children":[
				3
			],
			"name":"DefaultName.005",
			"rotation":[
				0.6070765256881714,
				0.2243930995464325,
				-0.1841546595096588,
				0.73972487449646
			],
			"translation":[
				3475858.5,
				1236140.5,
				5201990
			]
		},
		{
			"children":[
				4
			],
			"name":"DefaultName.004"
		},
		{
			"mesh":2,
			"name":"DefaultName.009",
			"translation":[
				0.17391255497932434,
				0.375,
				0.18359375
			]
		},
		{
			"children":[
				6
			],
			"name":"DefaultName.008",
			"rotation":[
				0.45109856128692627,
				0.25600823760032654,
				-0.13683924078941345,
				0.8439460396766663
			],
			"translation":[
				2949363.75,
				3523424,
				4414035
			]
		},
		{
			"children":[
				7
			],
			"name":"DefaultName.007"
		},
		{
			"mesh":3,
			"name":"DefaultName.012",
			"translation":[
				-0.08016505837440491,
				0.46875,
				0.37890625
			]
		},
		{
			"children":[
				9
			],
			"name":"DefaultName.011",
			"rotation":[
				0.4691268801689148,
				0.08644341677427292,
				-0.04620496556162834,
				0.8776745796203613
			],
			"translation":[
				1035678.8125,
				3523423.75,
				5206709
			]
		},
		{
			"children":[
				10
			],
			"name":"DefaultName.010"
		},
		{
			"children":[
				2,
				5,
				8,
				11
			],
			"name":"DefaultName",
			"rotation":[
				0.7071068286895752,
				0,
				0,
				0.7071068286895752
			],
			"scale":[
				0.009999999776482582,
				0.009999999776482582,
				0.009999999776482582
			]
		}
	],
	"materials":[
		{
			"extensions":{
				"KHR_materials_unlit":{}
			},
			"name":"baza_L4X4Y4_I.png",
			"pbrMetallicRoughness":{
				"baseColorTexture":{
					"index":0,
					"texCoord":0
				},
				"metallicFactor":0,
				"roughnessFactor":0.9
			}
		},
		{
			"extensions":{
				"KHR_materials_unlit":{}
			},
			"name":"baza_L4X5Y4_I.png",
			"pbrMetallicRoughness":{
				"baseColorTexture":{
					"index":1,
					"texCoord":0
				},
				"metallicFactor":0,
				"roughnessFactor":0.9
			}
		},
		{
			"extensions":{
				"KHR_materials_unlit":{}
			},
			"name":"baza_L4X5Y5_I.png",
			"pbrMetallicRoughness":{
				"baseColorTexture":{
					"index":2,
					"texCoord":0
				},
				"metallicFactor":0,
				"roughnessFactor":0.9
			}
		},
		{
			"extensions":{
				"KHR_materials_unlit":{}
			},
			"name":"baza_L4X4Y5_I.png",
			"pbrMetallicRoughness":{
				"baseColorTexture":{
					"index":3,
					"texCoord":0
				},
				"metallicFactor":0,
				"roughnessFactor":0.9
			}
		}
	],
	"meshes":[
		{
			"name":"Mesh",
			"primitives":[
				{
					"attributes":{
						"POSITION":0,
						"NORMAL":1,
						"TEXCOORD_0":2
					},
					"indices":3,
					"material":0
				}
			]
		},
		{
			"name":"Mesh.001",
			"primitives":[
				{
					"attributes":{
						"POSITION":4,
						"NORMAL":5,
						"TEXCOORD_0":6
					},
					"indices":7,
					"material":1
				}
			]
		},
		{
			"name":"Mesh.002",
			"primitives":[
				{
					"attributes":{
						"POSITION":8,
						"NORMAL":9,
						"TEXCOORD_0":10
					},
					"indices":11,
					"material":2
				}
			]
		},
		{
			"name":"Mesh.003",
			"primitives":[
				{
					"attributes":{
						"POSITION":12,
						"NORMAL":13,
						"TEXCOORD_0":14
					},
					"indices":15,
					"material":3
				}
			]
		}
	],
	"textures":[
		{
			"sampler":0,
			"source":0
		},
		{
			"sampler":0,
			"source":1
		},
		{
			"sampler":0,
			"source":2
		},
		{
			"sampler":0,
			"source":3
		}
	],
	"images":[
		{
			"mimeType":"image/jpeg",
			"name":"baza_L4X4Y4_I.png",
			"uri":"baza_L4X4Y4_I_png.jpg"
		},
		{
			"mimeType":"image/jpeg",
			"name":"baza_L4X5Y4_I.png",
			"uri":"baza_L4X5Y4_I_png.jpg"
		},
		{
			"mimeType":"image/jpeg",
			"name":"baza_L4X5Y5_I.png",
			"uri":"baza_L4X5Y5_I_png.jpg"
		},
		{
			"mimeType":"image/jpeg",
			"name":"baza_L4X4Y5_I.png",
			"uri":"baza_L4X4Y5_I_png.jpg"
		}
	],
	"accessors":[
		{
			"bufferView":0,
			"componentType":5126,
			"count":517,
			"max":[
				1244332,
				-827.9058837890625,
				1236837.375
			],
			"min":[
				-1244312.75,
				-265879.875,
				-1259160.5
			],
			"type":"VEC3"
		},
		{
			"bufferView":1,
			"componentType":5126,
			"count":517,
			"type":"VEC3"
		},
		{
			"bufferView":2,
			"componentType":5126,
			"count":517,
			"type":"VEC2"
		},
		{
			"bufferView":3,
			"componentType":5123,
			"count":2712,
			"type":"SCALAR"
		},
		{
			"bufferView":4,
			"componentType":5126,
			"count":517,
			"max":[
				1244312.75,
				-469.8998107910156,
				1236195.5
			],
			"min":[
				-1244332,
				-265879.875,
				-1259160.5
			],
			"type":"VEC3"
		},
		{
			"bufferView":5,
			"componentType":5126,
			"count":517,
			"type":"VEC3"
		},
		{
			"bufferView":6,
			"componentType":5126,
			"count":517,
			"type":"VEC2"
		},
		{
			"bufferView":7,
			"componentType":5123,
			"count":2712,
			"type":"SCALAR"
		},
		{
			"bufferView":8,
			"componentType":5126,
			"count":517,
			"max":[
				1150159,
				-406.102783203125,
				1238771.75
			],
			"min":[
				-1150159,
				-240195.640625,
				-1289249.75
			],
			"type":"VEC3"
		},
		{
			"bufferView":9,
			"componentType":5126,
			"count":517,
			"type":"VEC3"
		},
		{
			"bufferView":10,
			"componentType":5126,
			"count":517,
			"type":"VEC2"
		},
		{
			"bufferView":11,
			"componentType":5123,
			"count":2712,
			"type":"SCALAR"
		},
		{
			"bufferView":12,
			"componentType":5126,
			"count":517,
			"max":[
				1150159,
				-395.77972412109375,
				1238771.75
			],
			"min":[
				-1150159,
				-240195.640625,
				-1289308.5
			],
			"type":"VEC3"
		},
		{
			"bufferView":13,
			"componentType":5126,
			"count":517,
			"type":"VEC3"
		},
		{
			"bufferView":14,
			"componentType":5126,
			"count":517,
			"type":"VEC2"
		},
		{
			"bufferView":15,
			"componentType":5123,
			"count":2712,
			"type":"SCALAR"
		}
	],
	"bufferViews":[
		{
			"buffer":0,
			"byteLength":6204,
			"byteOffset":0,
			"target":34962
		},
		{
			"buffer":0,
			"byteLength":6204,
			"byteOffset":6204,
			"target":34962
		},
		{
			"buffer":0,
			"byteLength":4136,
			"byteOffset":12408,
			"target":34962
		},
		{
			"buffer":0,
			"byteLength":5424,
			"byteOffset":16544,
			"target":34963
		},
		{
			"buffer":0,
			"byteLength":6204,
			"byteOffset":21968,
			"target":34962
		},
		{
			"buffer":0,
			"byteLength":6204,
			"byteOffset":28172,
			"target":34962
		},
		{
			"buffer":0,
			"byteLength":4136,
			"byteOffset":34376,
			"target":34962
		},
		{
			"buffer":0,
			"byteLength":5424,
			"byteOffset":38512,
			"target":34963
		},
		{
			"buffer":0,
			"byteLength":6204,
			"byteOffset":43936,
			"target":34962
		},
		{
			"buffer":0,
			"byteLength":6204,
			"byteOffset":50140,
			"target":34962
		},
		{
			"buffer":0,
			"byteLength":4136,
			"byteOffset":56344,
			"target":34962
		},
		{
			"buffer":0,
			"byteLength":5424,
			"byteOffset":60480,
			"target":34963
		},
		{
			"buffer":0,
			"byteLength":6204,
			"byteOffset":65904,
			"target":34962
		},
		{
			"buffer":0,
			"byteLength":6204,
			"byteOffset":72108,
			"target":34962
		},
		{
			"buffer":0,
			"byteLength":4136,
			"byteOffset":78312,
			"target":34962
		},
		{
			"buffer":0,
			"byteLength":5424,
			"byteOffset":82448,
			"target":34963
		}
	],
	"samplers":[
		{
			"magFilter":9729,
			"minFilter":9987
		}
	],
	"buffers":[
		{
			"byteLength":87872,
			"uri":"L3X2Y2.bin"
		}
	]
}
