{
	"asset":{
		"generator":"Khronos glTF Blender I/O v3.6.27",
		"version":"2.0"
	},
	"extensionsUsed":[
		"KHR_materials_unlit"
	],
	"scene":0,
	"scenes":[
		{
			"name":"Scene",
			"nodes":[
				12
			]
		}
	],
	"nodes":[
		{
			"mesh":0,
			"name":"DefaultName.003",
			"translation":[
				0.08210664987564087,
				-0.3203125,
				-0.037109375
			]
		},
		{
			"children":[
				0
			],
			"name":"DefaultName.002",
			"rotation":[
				0.4691269099712372,
				-0.08644342422485352,
				0.8776745796203613,
				0.04620492085814476
			],
			"translation":[
				-1037955.5625,
				-6233810,
				-693539.8125
			]
		},
		{
			"children":[
				1
			],
			"name":"DefaultName.001"
		},
		{
			"mesh":1,
			"name":"DefaultName.006",
			"translation":[
				-0.006715685129165649,
				0.2138671875,
				-0.0048828125
			]
		},
		{
			"children":[
				3
			],
			"name":"DefaultName.005",
			"rotation":[
				0.6313385963439941,
				-0.07576827704906464,
				0.769288182258606,
				0.06218141317367554
			],
			"translation":[
				-1224352,
				-6233810,
				-243538.796875
			]
		},
		{
			"children":[
				4
			],
			"name":"DefaultName.004"
		},
		{
			"mesh":2,
			"name":"DefaultName.009",
			"translation":[
				0.027576938271522522,
				-0.53125,
				-0.123046875
			]
		},
		{
			"children":[
				6
			],
			"name":"DefaultName.008",
			"rotation":[
				0.6070765852928162,
				-0.2243930995464325,
				0.7397249341011047,
				0.18415464460849762
			],
			"translation":[
				-3483486,
				-5279957.5,
				-692908.375
			]
		},
		{
			"children":[
				7
			],
			"name":"DefaultName.007"
		},
		{
			"mesh":3,
			"name":"DefaultName.012",
			"translation":[
				0.06310176849365234,
				-0.5625,
				0.0546875
			]
		},
		{
			"children":[
				9
			],
			"name":"DefaultName.011",
			"rotation":[
				0.45109856128692627,
				-0.25600817799568176,
				0.8439460396766663,
				0.13683925569057465
			],
			"translation":[
				-2953156.75,
				-5279957.5,
				-1973236.125
			]
		},
		{
			"children":[
				10
			],
			"name":"DefaultName.010"
		},
		{
			"children":[
				2,
				5,
				8,
				11
			],
			"name":"DefaultName",
			"rotation":[
				0.7071068286895752,
				0,
				0,
				0.7071068286895752
			],
			"scale":[
				0.009999999776482582,
				0.009999999776482582,
				0.009999999776482582
			]
		}
	],
	"materials":[
		{
			"extensions":{
				"KHR_materials_unlit":{}
			},
			"name":"baza_L4X14Y0_I.png",
			"pbrMetallicRoughness":{
				"baseColorTexture":{
					"index":0,
					"texCoord":0
				},
				"metallicFactor":0,
				"roughnessFactor":0.9
			}
		},
		{
			"extensions":{
				"KHR_materials_unlit":{}
			},
			"name":"baza_L4X15Y0_I.png",
			"pbrMetallicRoughness":{
				"baseColorTexture":{
					"index":1,
					"texCoord":0
				},
				"metallicFactor":0,
				"roughnessFactor":0.9
			}
		},
		{
			"extensions":{
				"KHR_materials_unlit":{}
			},
			"name":"baza_L4X15Y1_I.png",
			"pbrMetallicRoughness":{
				"baseColorTexture":{
					"index":2,
					"texCoord":0
				},
				"metallicFactor":0,
				"roughnessFactor":0.9
			}
		},
		{
			"extensions":{
				"KHR_materials_unlit":{}
			},
			"name":"baza_L4X14Y1_I.png",
			"pbrMetallicRoughness":{
				"baseColorTexture":{
					"index":3,
					"texCoord":0
				},
				"metallicFactor":0,
				"roughnessFactor":0.9
			}
		}
	],
	"meshes":[
		{
			"name":"Mesh",
			"primitives":[
				{
					"attributes":{
						"POSITION":0,
						"NORMAL":1,
						"TEXCOORD_0":2
					},
					"indices":3,
					"material":0
				}
			]
		},
		{
			"name":"Mesh.001",
			"primitives":[
				{
					"attributes":{
						"POSITION":4,
						"NORMAL":5,
						"TEXCOORD_0":6
					},
					"indices":7,
					"material":1
				}
			]
		},
		{
			"name":"Mesh.002",
			"primitives":[
				{
					"attributes":{
						"POSITION":8,
						"NORMAL":9,
						"TEXCOORD_0":10
					},
					"indices":11,
					"material":2
				}
			]
		},
		{
			"name":"Mesh.003",
			"primitives":[
				{
					"attributes":{
						"POSITION":12,
						"NORMAL":13,
						"TEXCOORD_0":14
					},
					"indices":15,
					"material":3
				}
			]
		}
	],
	"textures":[
		{
			"sampler":0,
			"source":0
		},
		{
			"sampler":0,
			"source":1
		},
		{
			"sampler":0,
			"source":2
		},
		{
			"sampler":0,
			"source":3
		}
	],
	"images":[
		{
			"mimeType":"image/jpeg",
			"name":"baza_L4X14Y0_I.png",
			"uri":"baza_L4X14Y0_I_png.jpg"
		},
		{
			"mimeType":"image/jpeg",
			"name":"baza_L4X15Y0_I.png",
			"uri":"baza_L4X15Y0_I_png.jpg"
		},
		{
			"mimeType":"image/jpeg",
			"name":"baza_L4X15Y1_I.png",
			"uri":"baza_L4X15Y1_I_png.jpg"
		},
		{
			"mimeType":"image/jpeg",
			"name":"baza_L4X14Y1_I.png",
			"uri":"baza_L4X14Y1_I_png.jpg"
		}
	],
	"accessors":[
		{
			"bufferView":0,
			"componentType":5126,
			"count":517,
			"max":[
				477544.1875,
				-9.169011116027832,
				1248337.125
			],
			"min":[
				-477544.1875,
				-156463.109375,
				-1247404.75
			],
			"type":"VEC3"
		},
		{
			"bufferView":1,
			"componentType":5126,
			"count":517,
			"type":"VEC3"
		},
		{
			"bufferView":2,
			"componentType":5126,
			"count":517,
			"type":"VEC2"
		},
		{
			"bufferView":3,
			"componentType":5123,
			"count":2712,
			"type":"SCALAR"
		},
		{
			"bufferView":4,
			"componentType":5126,
			"count":517,
			"max":[
				477544.1875,
				-9.169011116027832,
				1248337.125
			],
			"min":[
				-477544.1875,
				-156463.109375,
				-1247404.75
			],
			"type":"VEC3"
		},
		{
			"bufferView":5,
			"componentType":5126,
			"count":517,
			"type":"VEC3"
		},
		{
			"bufferView":6,
			"componentType":5126,
			"count":517,
			"type":"VEC2"
		},
		{
			"bufferView":7,
			"componentType":5123,
			"count":2712,
			"type":"SCALAR"
		},
		{
			"bufferView":8,
			"componentType":5126,
			"count":517,
			"max":[
				881338.25,
				-74.29052734375,
				1284781.25
			],
			"min":[
				-881338.25,
				-194908.390625,
				-1243515.625
			],
			"type":"VEC3"
		},
		{
			"bufferView":9,
			"componentType":5126,
			"count":517,
			"type":"VEC3"
		},
		{
			"bufferView":10,
			"componentType":5126,
			"count":517,
			"type":"VEC2"
		},
		{
			"bufferView":11,
			"componentType":5123,
			"count":2712,
			"type":"SCALAR"
		},
		{
			"bufferView":12,
			"componentType":5126,
			"count":517,
			"max":[
				881338.25,
				-74.29052734375,
				1284781.25
			],
			"min":[
				-881338.25,
				-194908.375,
				-1243432.75
			],
			"type":"VEC3"
		},
		{
			"bufferView":13,
			"componentType":5126,
			"count":517,
			"type":"VEC3"
		},
		{
			"bufferView":14,
			"componentType":5126,
			"count":517,
			"type":"VEC2"
		},
		{
			"bufferView":15,
			"componentType":5123,
			"count":2712,
			"type":"SCALAR"
		}
	],
	"bufferViews":[
		{
			"buffer":0,
			"byteLength":6204,
			"byteOffset":0,
			"target":34962
		},
		{
			"buffer":0,
			"byteLength":6204,
			"byteOffset":6204,
			"target":34962
		},
		{
			"buffer":0,
			"byteLength":4136,
			"byteOffset":12408,
			"target":34962
		},
		{
			"buffer":0,
			"byteLength":5424,
			"byteOffset":16544,
			"target":34963
		},
		{
			"buffer":0,
			"byteLength":6204,
			"byteOffset":21968,
			"target":34962
		},
		{
			"buffer":0,
			"byteLength":6204,
			"byteOffset":28172,
			"target":34962
		},
		{
			"buffer":0,
			"byteLength":4136,
			"byteOffset":34376,
			"target":34962
		},
		{
			"buffer":0,
			"byteLength":5424,
			"byteOffset":38512,
			"target":34963
		},
		{
			"buffer":0,
			"byteLength":6204,
			"byteOffset":43936,
			"target":34962
		},
		{
			"buffer":0,
			"byteLength":6204,
			"byteOffset":50140,
			"target":34962
		},
		{
			"buffer":0,
			"byteLength":4136,
			"byteOffset":56344,
			"target":34962
		},
		{
			"buffer":0,
			"byteLength":5424,
			"byteOffset":60480,
			"target":34963
		},
		{
			"buffer":0,
			"byteLength":6204,
			"byteOffset":65904,
			"target":34962
		},
		{
			"buffer":0,
			"byteLength":6204,
			"byteOffset":72108,
			"target":34962
		},
		{
			"buffer":0,
			"byteLength":4136,
			"byteOffset":78312,
			"target":34962
		},
		{
			"buffer":0,
			"byteLength":5424,
			"byteOffset":82448,
			"target":34963
		}
	],
	"samplers":[
		{
			"magFilter":9729,
			"minFilter":9987
		}
	],
	"buffers":[
		{
			"byteLength":87872,
			"uri":"L3X7Y0.bin"
		}
	]
}
