{
	"asset":{
		"generator":"Khronos glTF Blender I/O v3.6.27",
		"version":"2.0"
	},
	"extensionsUsed":[
		"KHR_materials_unlit"
	],
	"scene":0,
	"scenes":[
		{
			"name":"Scene",
			"nodes":[
				12
			]
		}
	],
	"nodes":[
		{
			"mesh":0,
			"name":"DefaultName.003",
			"translation":[
				0.10136846452951431,
				-0.4375,
				-0.02734375
			]
		},
		{
			"children":[
				0
			],
			"name":"DefaultName.002",
			"rotation":[
				0.13683924078941345,
				-0.8439460396766663,
				0.25600820779800415,
				0.45109859108924866
			],
			"translation":[
				-2953156.75,
				5279957.5,
				-1973236.125
			]
		},
		{
			"children":[
				1
			],
			"name":"DefaultName.001"
		},
		{
			"mesh":1,
			"name":"DefaultName.006",
			"translation":[
				0.10664993524551392,
				0.4140625,
				0.359375
			]
		},
		{
			"children":[
				3
			],
			"name":"DefaultName.005",
			"rotation":[
				0.1841546595096588,
				-0.73972487449646,
				0.2243930995464325,
				0.6070765256881714
			],
			"translation":[
				-3483486,
				5279957.5,
				-692908.4375
			]
		},
		{
			"children":[
				4
			],
			"name":"DefaultName.004"
		},
		{
			"mesh":2,
			"name":"DefaultName.009",
			"translation":[
				0.03603030741214752,
				0.337890625,
				-0.1025390625
			]
		},
		{
			"children":[
				6
			],
			"name":"DefaultName.008",
			"rotation":[
				0.06218143180012703,
				-0.7692882418632507,
				0.07576829195022583,
				0.6313385367393494
			],
			"translation":[
				-1224352,
				6233810,
				-243538.78125
			]
		},
		{
			"children":[
				7
			],
			"name":"DefaultName.007"
		},
		{
			"mesh":3,
			"name":"DefaultName.012",
			"translation":[
				0.09953346848487854,
				-0.078125,
				0.015625
			]
		},
		{
			"children":[
				9
			],
			"name":"DefaultName.011",
			"rotation":[
				0.04620496556162834,
				-0.8776745796203613,
				0.08644341677427292,
				0.4691269099712372
			],
			"translation":[
				-1037955.5625,
				6233810,
				-693539.8125
			]
		},
		{
			"children":[
				10
			],
			"name":"DefaultName.010"
		},
		{
			"children":[
				2,
				5,
				8,
				11
			],
			"name":"DefaultName",
			"rotation":[
				0.7071068286895752,
				0,
				0,
				0.7071068286895752
			],
			"scale":[
				0.009999999776482582,
				0.009999999776482582,
				0.009999999776482582
			]
		}
	],
	"materials":[
		{
			"extensions":{
				"KHR_materials_unlit":{}
			},
			"name":"baza_L4X14Y6_I.png",
			"pbrMetallicRoughness":{
				"baseColorTexture":{
					"index":0,
					"texCoord":0
				},
				"metallicFactor":0,
				"roughnessFactor":0.9
			}
		},
		{
			"extensions":{
				"KHR_materials_unlit":{}
			},
			"name":"baza_L4X15Y6_I.png",
			"pbrMetallicRoughness":{
				"baseColorTexture":{
					"index":1,
					"texCoord":0
				},
				"metallicFactor":0,
				"roughnessFactor":0.9
			}
		},
		{
			"extensions":{
				"KHR_materials_unlit":{}
			},
			"name":"baza_L4X15Y7_I.png",
			"pbrMetallicRoughness":{
				"baseColorTexture":{
					"index":2,
					"texCoord":0
				},
				"metallicFactor":0,
				"roughnessFactor":0.9
			}
		},
		{
			"extensions":{
				"KHR_materials_unlit":{}
			},
			"name":"baza_L4X14Y7_I.png",
			"pbrMetallicRoughness":{
				"baseColorTexture":{
					"index":3,
					"texCoord":0
				},
				"metallicFactor":0,
				"roughnessFactor":0.9
			}
		}
	],
	"meshes":[
		{
			"name":"Mesh",
			"primitives":[
				{
					"attributes":{
						"POSITION":0,
						"NORMAL":1,
						"TEXCOORD_0":2
					},
					"indices":3,
					"material":0
				}
			]
		},
		{
			"name":"Mesh.001",
			"primitives":[
				{
					"attributes":{
						"POSITION":4,
						"NORMAL":5,
						"TEXCOORD_0":6
					},
					"indices":7,
					"material":1
				}
			]
		},
		{
			"name":"Mesh.002",
			"primitives":[
				{
					"attributes":{
						"POSITION":8,
						"NORMAL":9,
						"TEXCOORD_0":10
					},
					"indices":11,
					"material":2
				}
			]
		},
		{
			"name":"Mesh.003",
			"primitives":[
				{
					"attributes":{
						"POSITION":12,
						"NORMAL":13,
						"TEXCOORD_0":14
					},
					"indices":15,
					"material":3
				}
			]
		}
	],
	"textures":[
		{
			"sampler":0,
			"source":0
		},
		{
			"sampler":0,
			"source":1
		},
		{
			"sampler":0,
			"source":2
		},
		{
			"sampler":0,
			"source":3
		}
	],
	"images":[
		{
			"mimeType":"image/jpeg",
			"name":"baza_L4X14Y6_I.png",
			"uri":"baza_L4X14Y6_I_png.jpg"
		},
		{
			"mimeType":"image/jpeg",
			"name":"baza_L4X15Y6_I.png",
			"uri":"baza_L4X15Y6_I_png.jpg"
		},
		{
			"mimeType":"image/jpeg",
			"name":"baza_L4X15Y7_I.png",
			"uri":"baza_L4X15Y7_I_png.jpg"
		},
		{
			"mimeType":"image/jpeg",
			"name":"baza_L4X14Y7_I.png",
			"uri":"baza_L4X14Y7_I_png.jpg"
		}
	],
	"accessors":[
		{
			"bufferView":0,
			"componentType":5126,
			"count":517,
			"max":[
				881338.25,
				-350.61761474609375,
				1243432.75
			],
			"min":[
				-881408.375,
				-194882.984375,
				-1284832.125
			],
			"type":"VEC3"
		},
		{
			"bufferView":1,
			"componentType":5126,
			"count":517,
			"type":"VEC3"
		},
		{
			"bufferView":2,
			"componentType":5126,
			"count":517,
			"type":"VEC2"
		},
		{
			"bufferView":3,
			"componentType":5123,
			"count":2712,
			"type":"SCALAR"
		},
		{
			"bufferView":4,
			"componentType":5126,
			"count":517,
			"max":[
				881338.25,
				-332.38677978515625,
				1243432.75
			],
			"min":[
				-881338.25,
				-194882.984375,
				-1284853.75
			],
			"type":"VEC3"
		},
		{
			"bufferView":5,
			"componentType":5126,
			"count":517,
			"type":"VEC3"
		},
		{
			"bufferView":6,
			"componentType":5126,
			"count":517,
			"type":"VEC2"
		},
		{
			"bufferView":7,
			"componentType":5123,
			"count":2712,
			"type":"SCALAR"
		},
		{
			"bufferView":8,
			"componentType":5126,
			"count":517,
			"max":[
				477571.09375,
				-105.43465423583984,
				1247501.125
			],
			"min":[
				-477562.34375,
				-156207.71875,
				-1248337.125
			],
			"type":"VEC3"
		},
		{
			"bufferView":9,
			"componentType":5126,
			"count":517,
			"type":"VEC3"
		},
		{
			"bufferView":10,
			"componentType":5126,
			"count":517,
			"type":"VEC2"
		},
		{
			"bufferView":11,
			"componentType":5123,
			"count":2712,
			"type":"SCALAR"
		},
		{
			"bufferView":12,
			"componentType":5126,
			"count":517,
			"max":[
				477562.34375,
				-105.43465423583984,
				1247417.375
			],
			"min":[
				-477563.0625,
				-156207.71875,
				-1248337.125
			],
			"type":"VEC3"
		},
		{
			"bufferView":13,
			"componentType":5126,
			"count":517,
			"type":"VEC3"
		},
		{
			"bufferView":14,
			"componentType":5126,
			"count":517,
			"type":"VEC2"
		},
		{
			"bufferView":15,
			"componentType":5123,
			"count":2712,
			"type":"SCALAR"
		}
	],
	"bufferViews":[
		{
			"buffer":0,
			"byteLength":6204,
			"byteOffset":0,
			"target":34962
		},
		{
			"buffer":0,
			"byteLength":6204,
			"byteOffset":6204,
			"target":34962
		},
		{
			"buffer":0,
			"byteLength":4136,
			"byteOffset":12408,
			"target":34962
		},
		{
			"buffer":0,
			"byteLength":5424,
			"byteOffset":16544,
			"target":34963
		},
		{
			"buffer":0,
			"byteLength":6204,
			"byteOffset":21968,
			"target":34962
		},
		{
			"buffer":0,
			"byteLength":6204,
			"byteOffset":28172,
			"target":34962
		},
		{
			"buffer":0,
			"byteLength":4136,
			"byteOffset":34376,
			"target":34962
		},
		{
			"buffer":0,
			"byteLength":5424,
			"byteOffset":38512,
			"target":34963
		},
		{
			"buffer":0,
			"byteLength":6204,
			"byteOffset":43936,
			"target":34962
		},
		{
			"buffer":0,
			"byteLength":6204,
			"byteOffset":50140,
			"target":34962
		},
		{
			"buffer":0,
			"byteLength":4136,
			"byteOffset":56344,
			"target":34962
		},
		{
			"buffer":0,
			"byteLength":5424,
			"byteOffset":60480,
			"target":34963
		},
		{
			"buffer":0,
			"byteLength":6204,
			"byteOffset":65904,
			"target":34962
		},
		{
			"buffer":0,
			"byteLength":6204,
			"byteOffset":72108,
			"target":34962
		},
		{
			"buffer":0,
			"byteLength":4136,
			"byteOffset":78312,
			"target":34962
		},
		{
			"buffer":0,
			"byteLength":5424,
			"byteOffset":82448,
			"target":34963
		}
	],
	"samplers":[
		{
			"magFilter":9729,
			"minFilter":9987
		}
	],
	"buffers":[
		{
			"byteLength":87872,
			"uri":"L3X7Y3.bin"
		}
	]
}
