{
	"asset":{
		"generator":"Khronos glTF Blender I/O v3.6.27",
		"version":"2.0"
	},
	"extensionsUsed":[
		"KHR_materials_unlit"
	],
	"scene":0,
	"scenes":[
		{
			"name":"Scene",
			"nodes":[
				12
			]
		}
	],
	"nodes":[
		{
			"mesh":0,
			"name":"DefaultName.003",
			"translation":[
				-0.07170730084180832,
				-0.125,
				-0.189453125
			]
		},
		{
			"children":[
				0
			],
			"name":"DefaultName.002",
			"rotation":[
				0.8535534143447876,
				-0.1464466005563736,
				0.3535533845424652,
				0.3535533845424652
			],
			"translation":[
				-3194419,
				-4487348,
				3194419
			]
		},
		{
			"children":[
				1
			],
			"name":"DefaultName.001"
		},
		{
			"mesh":1,
			"name":"DefaultName.006",
			"translation":[
				0.07170730084180832,
				-0.125,
				-0.189453125
			]
		},
		{
			"children":[
				3
			],
			"name":"DefaultName.005",
			"rotation":[
				0.8535534143447876,
				0.1464466005563736,
				-0.3535533845424652,
				0.3535533845424652
			],
			"translation":[
				3194419,
				-4487348,
				3194419
			]
		},
		{
			"children":[
				4
			],
			"name":"DefaultName.004"
		},
		{
			"mesh":2,
			"name":"DefaultName.009",
			"translation":[
				-0.10337235778570175,
				0.5,
				-0.330078125
			]
		},
		{
			"children":[
				6
			],
			"name":"DefaultName.008",
			"rotation":[
				0.3535533845424652,
				0.3535533845424652,
				-0.1464466005563736,
				0.8535534143447876
			],
			"translation":[
				3194419,
				4487349,
				3194418.75
			]
		},
		{
			"children":[
				7
			],
			"name":"DefaultName.007"
		},
		{
			"mesh":3,
			"name":"DefaultName.012",
			"translation":[
				0.10337235778570175,
				0.5,
				-0.330078125
			]
		},
		{
			"children":[
				9
			],
			"name":"DefaultName.011",
			"rotation":[
				0.3535533845424652,
				-0.3535533845424652,
				0.1464466005563736,
				0.8535534143447876
			],
			"translation":[
				-3194419,
				4487349,
				3194418.75
			]
		},
		{
			"children":[
				10
			],
			"name":"DefaultName.010"
		},
		{
			"children":[
				2,
				5,
				8,
				11
			],
			"name":"DefaultName",
			"rotation":[
				0.7071068286895752,
				0,
				0,
				0.7071068286895752
			],
			"scale":[
				0.009999999776482582,
				0.009999999776482582,
				0.009999999776482582
			]
		}
	],
	"materials":[
		{
			"extensions":{
				"KHR_materials_unlit":{}
			},
			"name":"baza_L2X0Y0_I.png",
			"pbrMetallicRoughness":{
				"baseColorTexture":{
					"index":0,
					"texCoord":0
				},
				"metallicFactor":0,
				"roughnessFactor":0.9
			}
		},
		{
			"extensions":{
				"KHR_materials_unlit":{}
			},
			"name":"baza_L2X1Y0_I.png",
			"pbrMetallicRoughness":{
				"baseColorTexture":{
					"index":1,
					"texCoord":0
				},
				"metallicFactor":0,
				"roughnessFactor":0.9
			}
		},
		{
			"extensions":{
				"KHR_materials_unlit":{}
			},
			"name":"baza_L2X1Y1_I.png",
			"pbrMetallicRoughness":{
				"baseColorTexture":{
					"index":2,
					"texCoord":0
				},
				"metallicFactor":0,
				"roughnessFactor":0.9
			}
		},
		{
			"extensions":{
				"KHR_materials_unlit":{}
			},
			"name":"baza_L2X0Y1_I.png",
			"pbrMetallicRoughness":{
				"baseColorTexture":{
					"index":3,
					"texCoord":0
				},
				"metallicFactor":0,
				"roughnessFactor":0.9
			}
		}
	],
	"meshes":[
		{
			"name":"Mesh",
			"primitives":[
				{
					"attributes":{
						"POSITION":0,
						"NORMAL":1,
						"TEXCOORD_0":2
					},
					"indices":3,
					"material":0
				}
			]
		},
		{
			"name":"Mesh.001",
			"primitives":[
				{
					"attributes":{
						"POSITION":4,
						"NORMAL":5,
						"TEXCOORD_0":6
					},
					"indices":7,
					"material":1
				}
			]
		},
		{
			"name":"Mesh.002",
			"primitives":[
				{
					"attributes":{
						"POSITION":8,
						"NORMAL":9,
						"TEXCOORD_0":10
					},
					"indices":11,
					"material":2
				}
			]
		},
		{
			"name":"Mesh.003",
			"primitives":[
				{
					"attributes":{
						"POSITION":12,
						"NORMAL":13,
						"TEXCOORD_0":14
					},
					"indices":15,
					"material":3
				}
			]
		}
	],
	"textures":[
		{
			"sampler":0,
			"source":0
		},
		{
			"sampler":0,
			"source":1
		},
		{
			"sampler":0,
			"source":2
		},
		{
			"sampler":0,
			"source":3
		}
	],
	"images":[
		{
			"mimeType":"image/jpeg",
			"name":"baza_L2X0Y0_I.png",
			"uri":"baza_L2X0Y0_I_png.jpg"
		},
		{
			"mimeType":"image/jpeg",
			"name":"baza_L2X1Y0_I.png",
			"uri":"baza_L2X1Y0_I_png.jpg"
		},
		{
			"mimeType":"image/jpeg",
			"name":"baza_L2X1Y1_I.png",
			"uri":"baza_L2X1Y1_I_png.jpg"
		},
		{
			"mimeType":"image/jpeg",
			"name":"baza_L2X0Y1_I.png",
			"uri":"baza_L2X0Y1_I_png.jpg"
		}
	],
	"accessors":[
		{
			"bufferView":0,
			"componentType":5126,
			"count":860,
			"max":[
				4510024,
				-1923.9088134765625,
				4516287.5
			],
			"min":[
				-4510024,
				-3223561.25,
				-4488639.5
			],
			"type":"VEC3"
		},
		{
			"bufferView":1,
			"componentType":5126,
			"count":860,
			"type":"VEC3"
		},
		{
			"bufferView":2,
			"componentType":5126,
			"count":860,
			"type":"VEC2"
		},
		{
			"bufferView":3,
			"componentType":5123,
			"count":4770,
			"type":"SCALAR"
		},
		{
			"bufferView":4,
			"componentType":5126,
			"count":861,
			"max":[
				4510024,
				-1923.9088134765625,
				4516287.5
			],
			"min":[
				-4510024,
				-3223561.25,
				-4488639.5
			],
			"type":"VEC3"
		},
		{
			"bufferView":5,
			"componentType":5126,
			"count":861,
			"type":"VEC3"
		},
		{
			"bufferView":6,
			"componentType":5126,
			"count":861,
			"type":"VEC2"
		},
		{
			"bufferView":7,
			"componentType":5123,
			"count":4776,
			"type":"SCALAR"
		},
		{
			"bufferView":8,
			"componentType":5126,
			"count":871,
			"max":[
				4510024,
				-1923.9088134765625,
				4488639.5
			],
			"min":[
				-4510024,
				-3223485.5,
				-4516287.5
			],
			"type":"VEC3"
		},
		{
			"bufferView":9,
			"componentType":5126,
			"count":871,
			"type":"VEC3"
		},
		{
			"bufferView":10,
			"componentType":5126,
			"count":871,
			"type":"VEC2"
		},
		{
			"bufferView":11,
			"componentType":5123,
			"count":4836,
			"type":"SCALAR"
		},
		{
			"bufferView":12,
			"componentType":5126,
			"count":871,
			"max":[
				4510024,
				-1923.9088134765625,
				4488639.5
			],
			"min":[
				-4510024,
				-3223485.5,
				-4516287.5
			],
			"type":"VEC3"
		},
		{
			"bufferView":13,
			"componentType":5126,
			"count":871,
			"type":"VEC3"
		},
		{
			"bufferView":14,
			"componentType":5126,
			"count":871,
			"type":"VEC2"
		},
		{
			"bufferView":15,
			"componentType":5123,
			"count":4836,
			"type":"SCALAR"
		}
	],
	"bufferViews":[
		{
			"buffer":0,
			"byteLength":10320,
			"byteOffset":0,
			"target":34962
		},
		{
			"buffer":0,
			"byteLength":10320,
			"byteOffset":10320,
			"target":34962
		},
		{
			"buffer":0,
			"byteLength":6880,
			"byteOffset":20640,
			"target":34962
		},
		{
			"buffer":0,
			"byteLength":9540,
			"byteOffset":27520,
			"target":34963
		},
		{
			"buffer":0,
			"byteLength":10332,
			"byteOffset":37060,
			"target":34962
		},
		{
			"buffer":0,
			"byteLength":10332,
			"byteOffset":47392,
			"target":34962
		},
		{
			"buffer":0,
			"byteLength":6888,
			"byteOffset":57724,
			"target":34962
		},
		{
			"buffer":0,
			"byteLength":9552,
			"byteOffset":64612,
			"target":34963
		},
		{
			"buffer":0,
			"byteLength":10452,
			"byteOffset":74164,
			"target":34962
		},
		{
			"buffer":0,
			"byteLength":10452,
			"byteOffset":84616,
			"target":34962
		},
		{
			"buffer":0,
			"byteLength":6968,
			"byteOffset":95068,
			"target":34962
		},
		{
			"buffer":0,
			"byteLength":9672,
			"byteOffset":102036,
			"target":34963
		},
		{
			"buffer":0,
			"byteLength":10452,
			"byteOffset":111708,
			"target":34962
		},
		{
			"buffer":0,
			"byteLength":10452,
			"byteOffset":122160,
			"target":34962
		},
		{
			"buffer":0,
			"byteLength":6968,
			"byteOffset":132612,
			"target":34962
		},
		{
			"buffer":0,
			"byteLength":9672,
			"byteOffset":139580,
			"target":34963
		}
	],
	"samplers":[
		{
			"magFilter":9729,
			"minFilter":9987
		}
	],
	"buffers":[
		{
			"byteLength":149252,
			"uri":"L1X0Y0.bin"
		}
	]
}
