{
	"asset":{
		"generator":"Khronos glTF Blender I/O v3.6.27",
		"version":"2.0"
	},
	"extensionsUsed":[
		"KHR_materials_unlit"
	],
	"scene":0,
	"scenes":[
		{
			"name":"Scene",
			"nodes":[
				7
			]
		}
	],
	"nodes":[
		{
			"mesh":0,
			"name":"DefaultName.003"
		},
		{
			"children":[
				0
			],
			"name":"DefaultName.002",
			"rotation":[
				0.7071068286895752,
				0,
				0,
				0.7071068286895752
			],
			"translation":[
				0,
				0,
				6378136.5
			]
		},
		{
			"children":[
				1
			],
			"name":"DefaultName.001"
		},
		{
			"mesh":1,
			"name":"DefaultName.006"
		},
		{
			"children":[
				3
			],
			"name":"DefaultName.005",
			"rotation":[
				0,
				-0.7071068286895752,
				0.7071068286895752,
				5.338508302088485e-08
			],
			"translation":[
				0,
				0,
				-6378136.5
			]
		},
		{
			"children":[
				4
			],
			"name":"DefaultName.004"
		},
		{
			"children":[
				2,
				5
			],
			"name":"DefaultName"
		},
		{
			"children":[
				6
			],
			"name":"baza_L0X0Y0",
			"rotation":[
				0.7071068286895752,
				0,
				0,
				0.7071068286895752
			],
			"scale":[
				0.009999999776482582,
				0.009999999776482582,
				0.009999999776482582
			]
		}
	],
	"materials":[
		{
			"extensions":{
				"KHR_materials_unlit":{}
			},
			"name":"baza_L1X0Y0_I.png",
			"pbrMetallicRoughness":{
				"baseColorTexture":{
					"index":0,
					"texCoord":0
				},
				"metallicFactor":0,
				"roughnessFactor":0.9
			}
		},
		{
			"extensions":{
				"KHR_materials_unlit":{}
			},
			"name":"baza_L1X1Y0_I.png",
			"pbrMetallicRoughness":{
				"baseColorTexture":{
					"index":1,
					"texCoord":0
				},
				"metallicFactor":0,
				"roughnessFactor":0.9
			}
		}
	],
	"meshes":[
		{
			"name":"Mesh",
			"primitives":[
				{
					"attributes":{
						"POSITION":0,
						"NORMAL":1,
						"TEXCOORD_0":2
					},
					"indices":3,
					"material":0
				}
			]
		},
		{
			"name":"Mesh.001",
			"primitives":[
				{
					"attributes":{
						"POSITION":4,
						"NORMAL":5,
						"TEXCOORD_0":6
					},
					"indices":7,
					"material":1
				}
			]
		}
	],
	"textures":[
		{
			"sampler":0,
			"source":0
		},
		{
			"sampler":0,
			"source":1
		}
	],
	"images":[
		{
			"mimeType":"image/jpeg",
			"name":"baza_L1X0Y0_I.png",
			"uri":"baza_L1X0Y0_I_png.jpg"
		},
		{
			"mimeType":"image/jpeg",
			"name":"baza_L1X1Y0_I.png",
			"uri":"baza_L1X1Y0_I_png.jpg"
		}
	],
	"accessors":[
		{
			"bufferView":0,
			"componentType":5126,
			"count":1041,
			"max":[
				6378137,
				0,
				6356752.5
			],
			"min":[
				-6378137,
				-6378137,
				-6356752.5
			],
			"type":"VEC3"
		},
		{
			"bufferView":1,
			"componentType":5126,
			"count":1041,
			"type":"VEC3"
		},
		{
			"bufferView":2,
			"componentType":5126,
			"count":1041,
			"type":"VEC2"
		},
		{
			"bufferView":3,
			"componentType":5123,
			"count":5856,
			"type":"SCALAR"
		},
		{
			"bufferView":4,
			"componentType":5126,
			"count":1041,
			"max":[
				6378137,
				0,
				6356752.5
			],
			"min":[
				-6378137,
				-6378137,
				-6356752.5
			],
			"type":"VEC3"
		},
		{
			"bufferView":5,
			"componentType":5126,
			"count":1041,
			"type":"VEC3"
		},
		{
			"bufferView":6,
			"componentType":5126,
			"count":1041,
			"type":"VEC2"
		},
		{
			"bufferView":7,
			"componentType":5123,
			"count":5856,
			"type":"SCALAR"
		}
	],
	"bufferViews":[
		{
			"buffer":0,
			"byteLength":12492,
			"byteOffset":0,
			"target":34962
		},
		{
			"buffer":0,
			"byteLength":12492,
			"byteOffset":12492,
			"target":34962
		},
		{
			"buffer":0,
			"byteLength":8328,
			"byteOffset":24984,
			"target":34962
		},
		{
			"buffer":0,
			"byteLength":11712,
			"byteOffset":33312,
			"target":34963
		},
		{
			"buffer":0,
			"byteLength":12492,
			"byteOffset":45024,
			"target":34962
		},
		{
			"buffer":0,
			"byteLength":12492,
			"byteOffset":57516,
			"target":34962
		},
		{
			"buffer":0,
			"byteLength":8328,
			"byteOffset":70008,
			"target":34962
		},
		{
			"buffer":0,
			"byteLength":11712,
			"byteOffset":78336,
			"target":34963
		}
	],
	"samplers":[
		{
			"magFilter":9729,
			"minFilter":9987
		}
	],
	"buffers":[
		{
			"byteLength":90048,
			"uri":"L0X0Y0.bin"
		}
	]
}
