{
	"asset":{
		"generator":"Khronos glTF Blender I/O v3.6.27",
		"version":"2.0"
	},
	"extensionsUsed":[
		"KHR_materials_unlit"
	],
	"scene":0,
	"scenes":[
		{
			"name":"Scene",
			"nodes":[
				14
			]
		}
	],
	"nodes":[
		{
			"mesh":0,
			"name":"DefaultName.003"
		},
		{
			"children":[
				0
			],
			"name":"DefaultName.002",
			"rotation":[
				0.7071068286895752,
				0,
				0,
				0.7071068286895752
			],
			"translation":[
				0,
				0,
				6378136.5
			]
		},
		{
			"children":[
				1
			],
			"name":"DefaultName.001"
		},
		{
			"mesh":1,
			"name":"DefaultName.006"
		},
		{
			"children":[
				3
			],
			"name":"DefaultName.005",
			"rotation":[
				0,
				-0.7071068286895752,
				0.7071068286895752,
				5.338508302088485e-08
			],
			"translation":[
				0,
				0,
				-6378136.5
			]
		},
		{
			"children":[
				4
			],
			"name":"DefaultName.004"
		},
		{
			"children":[
				2,
				5
			],
			"name":"DefaultName"
		},
		{
			"children":[
				6
			],
			"name":"baza_L0X0Y0"
		},
		{
			"mesh":2,
			"name":"DT",
			"translation":[
				-0.03732069581747055,
				0.328125,
				0.064453125
			]
		},
		{
			"children":[
				8
			],
			"name":"pies",
			"translation":[
				-0.03732069581747055,
				0.328125,
				0.064453125
			]
		},
		{
			"mesh":3,
			"name":"DT.001",
			"translation":[
				-0.03732069581747055,
				0.328125,
				0.064453125
			]
		},
		{
			"children":[
				10
			],
			"name":"pies.001",
			"translation":[
				-0.03732069581747055,
				0.328125,
				0.064453125
			]
		},
		{
			"children":[
				9,
				11
			],
			"name":"DefaultName.007",
			"translation":[
				-0.03732069581747055,
				0.328125,
				0.064453125
			]
		},
		{
			"children":[
				12
			],
			"name":"n1",
			"rotation":[
				0.17768250405788422,
				0.7731474041938782,
				-0.24683380126953125,
				0.5565475821495056
			],
			"translation":[
				3512598,
				5174927,
				-1175557.875
			]
		},
		{
			"children":[
				7,
				13
			],
			"name":"__G3D_SCENE_ILLUMINATED_DATA__",
			"rotation":[
				0.7071068286895752,
				0,
				0,
				0.7071068286895752
			],
			"scale":[
				0.009999999776482582,
				0.009999999776482582,
				0.009999999776482582
			]
		}
	],
	"materials":[
		{
			"extensions":{
				"KHR_materials_unlit":{}
			},
			"name":"baza_L1X0Y0_I.png",
			"pbrMetallicRoughness":{
				"baseColorTexture":{
					"index":0,
					"texCoord":0
				},
				"metallicFactor":0,
				"roughnessFactor":0.9
			}
		},
		{
			"extensions":{
				"KHR_materials_unlit":{}
			},
			"name":"baza_L1X1Y0_I.png",
			"pbrMetallicRoughness":{
				"baseColorTexture":{
					"index":1,
					"texCoord":0
				},
				"metallicFactor":0,
				"roughnessFactor":0.9
			}
		},
		{
			"extensions":{
				"KHR_materials_unlit":{}
			},
			"name":"Material.002",
			"pbrMetallicRoughness":{
				"metallicFactor":0,
				"roughnessFactor":0.9
			}
		},
		{
			"extensions":{
				"KHR_materials_unlit":{}
			},
			"name":"Material.003",
			"pbrMetallicRoughness":{
				"metallicFactor":0,
				"roughnessFactor":0.9
			}
		}
	],
	"meshes":[
		{
			"name":"Mesh",
			"primitives":[
				{
					"attributes":{
						"POSITION":0,
						"NORMAL":1,
						"TEXCOORD_0":2
					},
					"indices":3,
					"material":0
				}
			]
		},
		{
			"name":"Mesh.001",
			"primitives":[
				{
					"attributes":{
						"POSITION":4,
						"NORMAL":5,
						"TEXCOORD_0":6
					},
					"indices":7,
					"material":1
				}
			]
		},
		{
			"name":"DT",
			"primitives":[
				{
					"attributes":{
						"POSITION":8,
						"NORMAL":9,
						"TEXCOORD_0":10
					},
					"indices":11,
					"material":2
				}
			]
		},
		{
			"name":"DT.001",
			"primitives":[
				{
					"attributes":{
						"POSITION":12,
						"NORMAL":13,
						"TEXCOORD_0":14
					},
					"indices":15,
					"material":3
				}
			]
		}
	],
	"textures":[
		{
			"sampler":0,
			"source":0
		},
		{
			"sampler":0,
			"source":1
		}
	],
	"images":[
		{
			"mimeType":"image/jpeg",
			"name":"baza_L1X0Y0_I.png",
			"uri":"baza_L1X0Y0_I_png.jpg"
		},
		{
			"mimeType":"image/jpeg",
			"name":"baza_L1X1Y0_I.png",
			"uri":"baza_L1X1Y0_I_png.jpg"
		}
	],
	"accessors":[
		{
			"bufferView":0,
			"componentType":5126,
			"count":1041,
			"max":[
				6378137,
				0,
				6356752.5
			],
			"min":[
				-6378137,
				-6378137,
				-6356752.5
			],
			"type":"VEC3"
		},
		{
			"bufferView":1,
			"componentType":5126,
			"count":1041,
			"type":"VEC3"
		},
		{
			"bufferView":2,
			"componentType":5126,
			"count":1041,
			"type":"VEC2"
		},
		{
			"bufferView":3,
			"componentType":5123,
			"count":5856,
			"type":"SCALAR"
		},
		{
			"bufferView":4,
			"componentType":5126,
			"count":1041,
			"max":[
				6378137,
				0,
				6356752.5
			],
			"min":[
				-6378137,
				-6378137,
				-6356752.5
			],
			"type":"VEC3"
		},
		{
			"bufferView":5,
			"componentType":5126,
			"count":1041,
			"type":"VEC3"
		},
		{
			"bufferView":6,
			"componentType":5126,
			"count":1041,
			"type":"VEC2"
		},
		{
			"bufferView":7,
			"componentType":5123,
			"count":5856,
			"type":"SCALAR"
		},
		{
			"bufferView":8,
			"componentType":5126,
			"count":4686,
			"max":[
				3837.43017578125,
				105.9950180053711,
				8242.1025390625
			],
			"min":[
				-8735.9912109375,
				-943.8781127929688,
				-6197.716796875
			],
			"type":"VEC3"
		},
		{
			"bufferView":9,
			"componentType":5126,
			"count":4686,
			"type":"VEC3"
		},
		{
			"bufferView":10,
			"componentType":5126,
			"count":4686,
			"type":"VEC2"
		},
		{
			"bufferView":11,
			"componentType":5123,
			"count":4686,
			"type":"SCALAR"
		},
		{
			"bufferView":12,
			"componentType":5126,
			"count":342,
			"max":[
				-2367.158935546875,
				73.98075866699219,
				-6155.6396484375
			],
			"min":[
				-8333.8037109375,
				-542.5468139648438,
				-9060.125
			],
			"type":"VEC3"
		},
		{
			"bufferView":13,
			"componentType":5126,
			"count":342,
			"type":"VEC3"
		},
		{
			"bufferView":14,
			"componentType":5126,
			"count":342,
			"type":"VEC2"
		},
		{
			"bufferView":15,
			"componentType":5123,
			"count":342,
			"type":"SCALAR"
		}
	],
	"bufferViews":[
		{
			"buffer":0,
			"byteLength":12492,
			"byteOffset":0,
			"target":34962
		},
		{
			"buffer":0,
			"byteLength":12492,
			"byteOffset":12492,
			"target":34962
		},
		{
			"buffer":0,
			"byteLength":8328,
			"byteOffset":24984,
			"target":34962
		},
		{
			"buffer":0,
			"byteLength":11712,
			"byteOffset":33312,
			"target":34963
		},
		{
			"buffer":0,
			"byteLength":12492,
			"byteOffset":45024,
			"target":34962
		},
		{
			"buffer":0,
			"byteLength":12492,
			"byteOffset":57516,
			"target":34962
		},
		{
			"buffer":0,
			"byteLength":8328,
			"byteOffset":70008,
			"target":34962
		},
		{
			"buffer":0,
			"byteLength":11712,
			"byteOffset":78336,
			"target":34963
		},
		{
			"buffer":0,
			"byteLength":56232,
			"byteOffset":90048,
			"target":34962
		},
		{
			"buffer":0,
			"byteLength":56232,
			"byteOffset":146280,
			"target":34962
		},
		{
			"buffer":0,
			"byteLength":37488,
			"byteOffset":202512,
			"target":34962
		},
		{
			"buffer":0,
			"byteLength":9372,
			"byteOffset":240000,
			"target":34963
		},
		{
			"buffer":0,
			"byteLength":4104,
			"byteOffset":249372,
			"target":34962
		},
		{
			"buffer":0,
			"byteLength":4104,
			"byteOffset":253476,
			"target":34962
		},
		{
			"buffer":0,
			"byteLength":2736,
			"byteOffset":257580,
			"target":34962
		},
		{
			"buffer":0,
			"byteLength":684,
			"byteOffset":260316,
			"target":34963
		}
	],
	"samplers":[
		{
			"magFilter":9729,
			"minFilter":9987
		}
	],
	"buffers":[
		{
			"byteLength":261000,
			"uri":"L0X0Y0_test.bin"
		}
	]
}
