{
	"asset":{
		"generator":"Khronos glTF Blender I/O v3.6.27",
		"version":"2.0"
	},
	"extensionsUsed":[
		"KHR_materials_unlit"
	],
	"scene":0,
	"scenes":[
		{
			"name":"Scene",
			"nodes":[
				12
			]
		}
	],
	"nodes":[
		{
			"mesh":0,
			"name":"DefaultName.003",
			"translation":[
				0.12604376673698425,
				-0.3125,
				0.2431640625
			]
		},
		{
			"children":[
				0
			],
			"name":"DefaultName.002",
			"rotation":[
				0.46193981170654297,
				-0.46193981170654297,
				0.3086583614349365,
				0.6913416385650635
			],
			"translation":[
				-5446751,
				2425657,
				2256118.25
			]
		},
		{
			"children":[
				1
			],
			"name":"DefaultName.001"
		},
		{
			"mesh":1,
			"name":"DefaultName.006",
			"translation":[
				0.19301626086235046,
				-0.125,
				-0.2041015625
			]
		},
		{
			"children":[
				3
			],
			"name":"DefaultName.005",
			"rotation":[
				0.5448951125144958,
				-0.16221170127391815,
				0.10838638991117477,
				0.8154931664466858
			],
			"translation":[
				-2256118.25,
				2425657,
				5446751
			]
		},
		{
			"children":[
				4
			],
			"name":"DefaultName.004"
		},
		{
			"mesh":2,
			"name":"DefaultName.009",
			"translation":[
				-0.09133454412221909,
				0.015625,
				-0.056640625
			]
		},
		{
			"children":[
				6
			],
			"name":"DefaultName.008",
			"rotation":[
				0.19134172797203064,
				-0.19134174287319183,
				0.03806024417281151,
				0.9619397521018982
			],
			"translation":[
				-936736.625,
				5869977.5,
				2261482.25
			]
		},
		{
			"children":[
				7
			],
			"name":"DefaultName.007"
		},
		{
			"mesh":3,
			"name":"DefaultName.012",
			"translation":[
				-0.044232215732336044,
				0.234375,
				-0.228515625
			]
		},
		{
			"children":[
				9
			],
			"name":"DefaultName.011",
			"rotation":[
				0.16221170127391815,
				-0.5448951125144958,
				0.10838638991117477,
				0.8154931664466858
			],
			"translation":[
				-2261482.25,
				5869977.5,
				936736.5625
			]
		},
		{
			"children":[
				10
			],
			"name":"DefaultName.010"
		},
		{
			"children":[
				2,
				5,
				8,
				11
			],
			"name":"DefaultName",
			"rotation":[
				0.7071068286895752,
				0,
				0,
				0.7071068286895752
			],
			"scale":[
				0.009999999776482582,
				0.009999999776482582,
				0.009999999776482582
			]
		}
	],
	"materials":[
		{
			"extensions":{
				"KHR_materials_unlit":{}
			},
			"name":"baza_L3X0Y2_I.png",
			"pbrMetallicRoughness":{
				"baseColorTexture":{
					"index":0,
					"texCoord":0
				},
				"metallicFactor":0,
				"roughnessFactor":0.9
			}
		},
		{
			"extensions":{
				"KHR_materials_unlit":{}
			},
			"name":"baza_L3X1Y2_I.png",
			"pbrMetallicRoughness":{
				"baseColorTexture":{
					"index":1,
					"texCoord":0
				},
				"metallicFactor":0,
				"roughnessFactor":0.9
			}
		},
		{
			"extensions":{
				"KHR_materials_unlit":{}
			},
			"name":"baza_L3X1Y3_I.png",
			"pbrMetallicRoughness":{
				"baseColorTexture":{
					"index":2,
					"texCoord":0
				},
				"metallicFactor":0,
				"roughnessFactor":0.9
			}
		},
		{
			"extensions":{
				"KHR_materials_unlit":{}
			},
			"name":"baza_L3X0Y3_I.png",
			"pbrMetallicRoughness":{
				"baseColorTexture":{
					"index":3,
					"texCoord":0
				},
				"metallicFactor":0,
				"roughnessFactor":0.9
			}
		}
	],
	"meshes":[
		{
			"name":"Mesh",
			"primitives":[
				{
					"attributes":{
						"POSITION":0,
						"NORMAL":1,
						"TEXCOORD_0":2
					},
					"indices":3,
					"material":0
				}
			]
		},
		{
			"name":"Mesh.001",
			"primitives":[
				{
					"attributes":{
						"POSITION":4,
						"NORMAL":5,
						"TEXCOORD_0":6
					},
					"indices":7,
					"material":1
				}
			]
		},
		{
			"name":"Mesh.002",
			"primitives":[
				{
					"attributes":{
						"POSITION":8,
						"NORMAL":9,
						"TEXCOORD_0":10
					},
					"indices":11,
					"material":2
				}
			]
		},
		{
			"name":"Mesh.003",
			"primitives":[
				{
					"attributes":{
						"POSITION":12,
						"NORMAL":13,
						"TEXCOORD_0":14
					},
					"indices":15,
					"material":3
				}
			]
		}
	],
	"textures":[
		{
			"sampler":0,
			"source":0
		},
		{
			"sampler":0,
			"source":1
		},
		{
			"sampler":0,
			"source":2
		},
		{
			"sampler":0,
			"source":3
		}
	],
	"images":[
		{
			"mimeType":"image/jpeg",
			"name":"baza_L3X0Y2_I.png",
			"uri":"baza_L3X0Y2_I_png.jpg"
		},
		{
			"mimeType":"image/jpeg",
			"name":"baza_L3X1Y2_I.png",
			"uri":"baza_L3X1Y2_I_png.jpg"
		},
		{
			"mimeType":"image/jpeg",
			"name":"baza_L3X1Y3_I.png",
			"uri":"baza_L3X1Y3_I_png.jpg"
		},
		{
			"mimeType":"image/jpeg",
			"name":"baza_L3X0Y3_I.png",
			"uri":"baza_L3X0Y3_I_png.jpg"
		}
	],
	"accessors":[
		{
			"bufferView":0,
			"componentType":5126,
			"count":624,
			"max":[
				2440807.25,
				-1771.537353515625,
				2425704.25
			],
			"min":[
				-2440807.25,
				-972596.5,
				-2563663.25
			],
			"type":"VEC3"
		},
		{
			"bufferView":1,
			"componentType":5126,
			"count":624,
			"type":"VEC3"
		},
		{
			"bufferView":2,
			"componentType":5126,
			"count":624,
			"type":"VEC2"
		},
		{
			"bufferView":3,
			"componentType":5123,
			"count":3354,
			"type":"SCALAR"
		},
		{
			"bufferView":4,
			"componentType":5126,
			"count":621,
			"max":[
				2440807.25,
				-1771.537353515625,
				2425704.25
			],
			"min":[
				-2440807.25,
				-972596.5,
				-2563829.5
			],
			"type":"VEC3"
		},
		{
			"bufferView":5,
			"componentType":5126,
			"count":621,
			"type":"VEC3"
		},
		{
			"bufferView":6,
			"componentType":5126,
			"count":621,
			"type":"VEC2"
		},
		{
			"bufferView":7,
			"componentType":5123,
			"count":3336,
			"type":"SCALAR"
		},
		{
			"bufferView":8,
			"componentType":5126,
			"count":517,
			"max":[
				1728918.75,
				-1875.341796875,
				2442059.5
			],
			"min":[
				-1728807.125,
				-661041.1875,
				-2447763
			],
			"type":"VEC3"
		},
		{
			"bufferView":9,
			"componentType":5126,
			"count":517,
			"type":"VEC3"
		},
		{
			"bufferView":10,
			"componentType":5126,
			"count":517,
			"type":"VEC2"
		},
		{
			"bufferView":11,
			"componentType":5123,
			"count":2712,
			"type":"SCALAR"
		},
		{
			"bufferView":12,
			"componentType":5126,
			"count":517,
			"max":[
				1728807.125,
				306.9164733886719,
				2441336.75
			],
			"min":[
				-1728807.125,
				-661041.1875,
				-2447763
			],
			"type":"VEC3"
		},
		{
			"bufferView":13,
			"componentType":5126,
			"count":517,
			"type":"VEC3"
		},
		{
			"bufferView":14,
			"componentType":5126,
			"count":517,
			"type":"VEC2"
		},
		{
			"bufferView":15,
			"componentType":5123,
			"count":2712,
			"type":"SCALAR"
		}
	],
	"bufferViews":[
		{
			"buffer":0,
			"byteLength":7488,
			"byteOffset":0,
			"target":34962
		},
		{
			"buffer":0,
			"byteLength":7488,
			"byteOffset":7488,
			"target":34962
		},
		{
			"buffer":0,
			"byteLength":4992,
			"byteOffset":14976,
			"target":34962
		},
		{
			"buffer":0,
			"byteLength":6708,
			"byteOffset":19968,
			"target":34963
		},
		{
			"buffer":0,
			"byteLength":7452,
			"byteOffset":26676,
			"target":34962
		},
		{
			"buffer":0,
			"byteLength":7452,
			"byteOffset":34128,
			"target":34962
		},
		{
			"buffer":0,
			"byteLength":4968,
			"byteOffset":41580,
			"target":34962
		},
		{
			"buffer":0,
			"byteLength":6672,
			"byteOffset":46548,
			"target":34963
		},
		{
			"buffer":0,
			"byteLength":6204,
			"byteOffset":53220,
			"target":34962
		},
		{
			"buffer":0,
			"byteLength":6204,
			"byteOffset":59424,
			"target":34962
		},
		{
			"buffer":0,
			"byteLength":4136,
			"byteOffset":65628,
			"target":34962
		},
		{
			"buffer":0,
			"byteLength":5424,
			"byteOffset":69764,
			"target":34963
		},
		{
			"buffer":0,
			"byteLength":6204,
			"byteOffset":75188,
			"target":34962
		},
		{
			"buffer":0,
			"byteLength":6204,
			"byteOffset":81392,
			"target":34962
		},
		{
			"buffer":0,
			"byteLength":4136,
			"byteOffset":87596,
			"target":34962
		},
		{
			"buffer":0,
			"byteLength":5424,
			"byteOffset":91732,
			"target":34963
		}
	],
	"samplers":[
		{
			"magFilter":9729,
			"minFilter":9987
		}
	],
	"buffers":[
		{
			"byteLength":97156,
			"uri":"L2X0Y1.bin"
		}
	]
}
