{
	"asset":{
		"generator":"Khronos glTF Blender I/O v3.6.27",
		"version":"2.0"
	},
	"extensionsUsed":[
		"KHR_materials_unlit"
	],
	"scene":0,
	"scenes":[
		{
			"name":"Scene",
			"nodes":[
				12
			]
		}
	],
	"nodes":[
		{
			"mesh":0,
			"name":"DefaultName.003",
			"translation":[
				-0.11223101615905762,
				-0.1875,
				0.2080078125
			]
		},
		{
			"children":[
				0
			],
			"name":"DefaultName.002",
			"rotation":[
				0.3086583614349365,
				0.6913416981697083,
				-0.4619397819042206,
				0.4619397819042206
			],
			"translation":[
				5446751,
				2425657,
				-2256118
			]
		},
		{
			"children":[
				1
			],
			"name":"DefaultName.001"
		},
		{
			"mesh":1,
			"name":"DefaultName.006",
			"translation":[
				0.06096908822655678,
				0.0625,
				0.2294921875
			]
		},
		{
			"children":[
				3
			],
			"name":"DefaultName.005",
			"rotation":[
				0.10838638991117477,
				0.8154931664466858,
				-0.5448951125144958,
				0.16221170127391815
			],
			"translation":[
				2256118.25,
				2425657.25,
				-5446751
			]
		},
		{
			"children":[
				4
			],
			"name":"DefaultName.004"
		},
		{
			"mesh":2,
			"name":"DefaultName.009",
			"translation":[
				-0.04739368334412575,
				-0.046875,
				0.1416015625
			]
		},
		{
			"children":[
				6
			],
			"name":"DefaultName.008",
			"rotation":[
				0.038060251623392105,
				0.9619397521018982,
				-0.19134174287319183,
				0.19134175777435303
			],
			"translation":[
				936736.625,
				5869977.5,
				-2261482
			]
		},
		{
			"children":[
				7
			],
			"name":"DefaultName.007"
		},
		{
			"mesh":3,
			"name":"DefaultName.012",
			"translation":[
				0.015995562076568604,
				-0.53125,
				-0.14453125
			]
		},
		{
			"children":[
				9
			],
			"name":"DefaultName.011",
			"rotation":[
				0.10838638991117477,
				0.815493106842041,
				-0.16221170127391815,
				0.5448952317237854
			],
			"translation":[
				2261482.25,
				5869977.5,
				-936736.6875
			]
		},
		{
			"children":[
				10
			],
			"name":"DefaultName.010"
		},
		{
			"children":[
				2,
				5,
				8,
				11
			],
			"name":"DefaultName",
			"rotation":[
				0.7071068286895752,
				0,
				0,
				0.7071068286895752
			],
			"scale":[
				0.009999999776482582,
				0.009999999776482582,
				0.009999999776482582
			]
		}
	],
	"materials":[
		{
			"extensions":{
				"KHR_materials_unlit":{}
			},
			"name":"baza_L3X4Y2_I.png",
			"pbrMetallicRoughness":{
				"baseColorTexture":{
					"index":0,
					"texCoord":0
				},
				"metallicFactor":0,
				"roughnessFactor":0.9
			}
		},
		{
			"extensions":{
				"KHR_materials_unlit":{}
			},
			"name":"baza_L3X5Y2_I.png",
			"pbrMetallicRoughness":{
				"baseColorTexture":{
					"index":1,
					"texCoord":0
				},
				"metallicFactor":0,
				"roughnessFactor":0.9
			}
		},
		{
			"extensions":{
				"KHR_materials_unlit":{}
			},
			"name":"baza_L3X5Y3_I.png",
			"pbrMetallicRoughness":{
				"baseColorTexture":{
					"index":2,
					"texCoord":0
				},
				"metallicFactor":0,
				"roughnessFactor":0.9
			}
		},
		{
			"extensions":{
				"KHR_materials_unlit":{}
			},
			"name":"baza_L3X4Y3_I.png",
			"pbrMetallicRoughness":{
				"baseColorTexture":{
					"index":3,
					"texCoord":0
				},
				"metallicFactor":0,
				"roughnessFactor":0.9
			}
		}
	],
	"meshes":[
		{
			"name":"Mesh",
			"primitives":[
				{
					"attributes":{
						"POSITION":0,
						"NORMAL":1,
						"TEXCOORD_0":2
					},
					"indices":3,
					"material":0
				}
			]
		},
		{
			"name":"Mesh.001",
			"primitives":[
				{
					"attributes":{
						"POSITION":4,
						"NORMAL":5,
						"TEXCOORD_0":6
					},
					"indices":7,
					"material":1
				}
			]
		},
		{
			"name":"Mesh.002",
			"primitives":[
				{
					"attributes":{
						"POSITION":8,
						"NORMAL":9,
						"TEXCOORD_0":10
					},
					"indices":11,
					"material":2
				}
			]
		},
		{
			"name":"Mesh.003",
			"primitives":[
				{
					"attributes":{
						"POSITION":12,
						"NORMAL":13,
						"TEXCOORD_0":14
					},
					"indices":15,
					"material":3
				}
			]
		}
	],
	"textures":[
		{
			"sampler":0,
			"source":0
		},
		{
			"sampler":0,
			"source":1
		},
		{
			"sampler":0,
			"source":2
		},
		{
			"sampler":0,
			"source":3
		}
	],
	"images":[
		{
			"mimeType":"image/jpeg",
			"name":"baza_L3X4Y2_I.png",
			"uri":"baza_L3X4Y2_I_png.jpg"
		},
		{
			"mimeType":"image/jpeg",
			"name":"baza_L3X5Y2_I.png",
			"uri":"baza_L3X5Y2_I_png.jpg"
		},
		{
			"mimeType":"image/jpeg",
			"name":"baza_L3X5Y3_I.png",
			"uri":"baza_L3X5Y3_I_png.jpg"
		},
		{
			"mimeType":"image/jpeg",
			"name":"baza_L3X4Y3_I.png",
			"uri":"baza_L3X4Y3_I_png.jpg"
		}
	],
	"accessors":[
		{
			"bufferView":0,
			"componentType":5126,
			"count":617,
			"max":[
				2440807.25,
				-1291.0712890625,
				2425881.75
			],
			"min":[
				-2440807.25,
				-972596.5,
				-2563681
			],
			"type":"VEC3"
		},
		{
			"bufferView":1,
			"componentType":5126,
			"count":617,
			"type":"VEC3"
		},
		{
			"bufferView":2,
			"componentType":5126,
			"count":617,
			"type":"VEC2"
		},
		{
			"bufferView":3,
			"componentType":5123,
			"count":3312,
			"type":"SCALAR"
		},
		{
			"bufferView":4,
			"componentType":5126,
			"count":627,
			"max":[
				2440807.25,
				-1770.8345947265625,
				2425704.25
			],
			"min":[
				-2440807.25,
				-972596.5,
				-2564070.5
			],
			"type":"VEC3"
		},
		{
			"bufferView":5,
			"componentType":5126,
			"count":627,
			"type":"VEC3"
		},
		{
			"bufferView":6,
			"componentType":5126,
			"count":627,
			"type":"VEC2"
		},
		{
			"bufferView":7,
			"componentType":5123,
			"count":3372,
			"type":"SCALAR"
		},
		{
			"bufferView":8,
			"componentType":5126,
			"count":517,
			"max":[
				1729080.375,
				-588.1760864257812,
				2441384.25
			],
			"min":[
				-1728819.25,
				-661000.9375,
				-2447763
			],
			"type":"VEC3"
		},
		{
			"bufferView":9,
			"componentType":5126,
			"count":517,
			"type":"VEC3"
		},
		{
			"bufferView":10,
			"componentType":5126,
			"count":517,
			"type":"VEC2"
		},
		{
			"bufferView":11,
			"componentType":5123,
			"count":2712,
			"type":"SCALAR"
		},
		{
			"bufferView":12,
			"componentType":5126,
			"count":517,
			"max":[
				1728819.25,
				168.30291748046875,
				2441610.25
			],
			"min":[
				-1728818.625,
				-661002.75,
				-2447763
			],
			"type":"VEC3"
		},
		{
			"bufferView":13,
			"componentType":5126,
			"count":517,
			"type":"VEC3"
		},
		{
			"bufferView":14,
			"componentType":5126,
			"count":517,
			"type":"VEC2"
		},
		{
			"bufferView":15,
			"componentType":5123,
			"count":2712,
			"type":"SCALAR"
		}
	],
	"bufferViews":[
		{
			"buffer":0,
			"byteLength":7404,
			"byteOffset":0,
			"target":34962
		},
		{
			"buffer":0,
			"byteLength":7404,
			"byteOffset":7404,
			"target":34962
		},
		{
			"buffer":0,
			"byteLength":4936,
			"byteOffset":14808,
			"target":34962
		},
		{
			"buffer":0,
			"byteLength":6624,
			"byteOffset":19744,
			"target":34963
		},
		{
			"buffer":0,
			"byteLength":7524,
			"byteOffset":26368,
			"target":34962
		},
		{
			"buffer":0,
			"byteLength":7524,
			"byteOffset":33892,
			"target":34962
		},
		{
			"buffer":0,
			"byteLength":5016,
			"byteOffset":41416,
			"target":34962
		},
		{
			"buffer":0,
			"byteLength":6744,
			"byteOffset":46432,
			"target":34963
		},
		{
			"buffer":0,
			"byteLength":6204,
			"byteOffset":53176,
			"target":34962
		},
		{
			"buffer":0,
			"byteLength":6204,
			"byteOffset":59380,
			"target":34962
		},
		{
			"buffer":0,
			"byteLength":4136,
			"byteOffset":65584,
			"target":34962
		},
		{
			"buffer":0,
			"byteLength":5424,
			"byteOffset":69720,
			"target":34963
		},
		{
			"buffer":0,
			"byteLength":6204,
			"byteOffset":75144,
			"target":34962
		},
		{
			"buffer":0,
			"byteLength":6204,
			"byteOffset":81348,
			"target":34962
		},
		{
			"buffer":0,
			"byteLength":4136,
			"byteOffset":87552,
			"target":34962
		},
		{
			"buffer":0,
			"byteLength":5424,
			"byteOffset":91688,
			"target":34963
		}
	],
	"samplers":[
		{
			"magFilter":9729,
			"minFilter":9987
		}
	],
	"buffers":[
		{
			"byteLength":97112,
			"uri":"L2X2Y1.bin"
		}
	]
}
