{
	"asset":{
		"generator":"Khronos glTF Blender I/O v3.6.27",
		"version":"2.0"
	},
	"extensionsUsed":[
		"KHR_materials_unlit"
	],
	"scene":0,
	"scenes":[
		{
			"name":"Scene",
			"nodes":[
				12
			]
		}
	],
	"nodes":[
		{
			"mesh":0,
			"name":"DefaultName.003",
			"translation":[
				0.07248963415622711,
				-0.28125,
				0.0078125
			]
		},
		{
			"children":[
				0
			],
			"name":"DefaultName.002",
			"rotation":[
				0.5448952317237854,
				0.16221173107624054,
				-0.815493106842041,
				0.10838641226291656
			],
			"translation":[
				2261482.25,
				-5869977.5,
				-936736.5625
			]
		},
		{
			"children":[
				1
			],
			"name":"DefaultName.001"
		},
		{
			"mesh":1,
			"name":"DefaultName.006",
			"translation":[
				-0.057991594076156616,
				-0.4375,
				0.1748046875
			]
		},
		{
			"children":[
				3
			],
			"name":"DefaultName.005",
			"rotation":[
				0.19134178757667542,
				0.19134178757667542,
				-0.9619397521018982,
				0.03806021064519882
			],
			"translation":[
				936736.625,
				-5869977.5,
				-2261482.25
			]
		},
		{
			"children":[
				4
			],
			"name":"DefaultName.004"
		},
		{
			"mesh":2,
			"name":"DefaultName.009",
			"translation":[
				-0.22121921181678772,
				-0.875,
				0.0625
			]
		},
		{
			"children":[
				6
			],
			"name":"DefaultName.008",
			"rotation":[
				0.16221173107624054,
				0.5448951721191406,
				-0.815493106842041,
				0.10838639736175537
			],
			"translation":[
				2256118.25,
				-2425657,
				-5446751
			]
		},
		{
			"children":[
				7
			],
			"name":"DefaultName.007"
		},
		{
			"mesh":3,
			"name":"DefaultName.012",
			"translation":[
				-0.08288563042879105,
				-0.5,
				-0.1513671875
			]
		},
		{
			"children":[
				9
			],
			"name":"DefaultName.011",
			"rotation":[
				0.4619397819042206,
				0.4619397819042206,
				-0.6913416981697083,
				0.30865830183029175
			],
			"translation":[
				5446751,
				-2425657,
				-2256118.25
			]
		},
		{
			"children":[
				10
			],
			"name":"DefaultName.010"
		},
		{
			"children":[
				2,
				5,
				8,
				11
			],
			"name":"DefaultName",
			"rotation":[
				0.7071068286895752,
				0,
				0,
				0.7071068286895752
			],
			"scale":[
				0.009999999776482582,
				0.009999999776482582,
				0.009999999776482582
			]
		}
	],
	"materials":[
		{
			"extensions":{
				"KHR_materials_unlit":{}
			},
			"name":"baza_L3X4Y0_I.png",
			"pbrMetallicRoughness":{
				"baseColorTexture":{
					"index":0,
					"texCoord":0
				},
				"metallicFactor":0,
				"roughnessFactor":0.9
			}
		},
		{
			"extensions":{
				"KHR_materials_unlit":{}
			},
			"name":"baza_L3X5Y0_I.png",
			"pbrMetallicRoughness":{
				"baseColorTexture":{
					"index":1,
					"texCoord":0
				},
				"metallicFactor":0,
				"roughnessFactor":0.9
			}
		},
		{
			"extensions":{
				"KHR_materials_unlit":{}
			},
			"name":"baza_L3X5Y1_I.png",
			"pbrMetallicRoughness":{
				"baseColorTexture":{
					"index":2,
					"texCoord":0
				},
				"metallicFactor":0,
				"roughnessFactor":0.9
			}
		},
		{
			"extensions":{
				"KHR_materials_unlit":{}
			},
			"name":"baza_L3X4Y1_I.png",
			"pbrMetallicRoughness":{
				"baseColorTexture":{
					"index":3,
					"texCoord":0
				},
				"metallicFactor":0,
				"roughnessFactor":0.9
			}
		}
	],
	"meshes":[
		{
			"name":"Mesh",
			"primitives":[
				{
					"attributes":{
						"POSITION":0,
						"NORMAL":1,
						"TEXCOORD_0":2
					},
					"indices":3,
					"material":0
				}
			]
		},
		{
			"name":"Mesh.001",
			"primitives":[
				{
					"attributes":{
						"POSITION":4,
						"NORMAL":5,
						"TEXCOORD_0":6
					},
					"indices":7,
					"material":1
				}
			]
		},
		{
			"name":"Mesh.002",
			"primitives":[
				{
					"attributes":{
						"POSITION":8,
						"NORMAL":9,
						"TEXCOORD_0":10
					},
					"indices":11,
					"material":2
				}
			]
		},
		{
			"name":"Mesh.003",
			"primitives":[
				{
					"attributes":{
						"POSITION":12,
						"NORMAL":13,
						"TEXCOORD_0":14
					},
					"indices":15,
					"material":3
				}
			]
		}
	],
	"textures":[
		{
			"sampler":0,
			"source":0
		},
		{
			"sampler":0,
			"source":1
		},
		{
			"sampler":0,
			"source":2
		},
		{
			"sampler":0,
			"source":3
		}
	],
	"images":[
		{
			"mimeType":"image/jpeg",
			"name":"baza_L3X4Y0_I.png",
			"uri":"baza_L3X4Y0_I_png.jpg"
		},
		{
			"mimeType":"image/jpeg",
			"name":"baza_L3X5Y0_I.png",
			"uri":"baza_L3X5Y0_I_png.jpg"
		},
		{
			"mimeType":"image/jpeg",
			"name":"baza_L3X5Y1_I.png",
			"uri":"baza_L3X5Y1_I_png.jpg"
		},
		{
			"mimeType":"image/jpeg",
			"name":"baza_L3X4Y1_I.png",
			"uri":"baza_L3X4Y1_I_png.jpg"
		}
	],
	"accessors":[
		{
			"bufferView":0,
			"componentType":5126,
			"count":517,
			"max":[
				1728807.125,
				-211.59567260742188,
				2447763
			],
			"min":[
				-1728807.125,
				-661130.875,
				-2441336.75
			],
			"type":"VEC3"
		},
		{
			"bufferView":1,
			"componentType":5126,
			"count":517,
			"type":"VEC3"
		},
		{
			"bufferView":2,
			"componentType":5126,
			"count":517,
			"type":"VEC2"
		},
		{
			"bufferView":3,
			"componentType":5123,
			"count":2712,
			"type":"SCALAR"
		},
		{
			"bufferView":4,
			"componentType":5126,
			"count":517,
			"max":[
				1728807.125,
				-211.59567260742188,
				2447763
			],
			"min":[
				-1728807.125,
				-661130.875,
				-2441336.75
			],
			"type":"VEC3"
		},
		{
			"bufferView":5,
			"componentType":5126,
			"count":517,
			"type":"VEC3"
		},
		{
			"bufferView":6,
			"componentType":5126,
			"count":517,
			"type":"VEC2"
		},
		{
			"bufferView":7,
			"componentType":5123,
			"count":2712,
			"type":"SCALAR"
		},
		{
			"bufferView":8,
			"componentType":5126,
			"count":622,
			"max":[
				2440807.25,
				-1771.537353515625,
				2563663.25
			],
			"min":[
				-2440807.25,
				-972582.0625,
				-2425704.25
			],
			"type":"VEC3"
		},
		{
			"bufferView":9,
			"componentType":5126,
			"count":622,
			"type":"VEC3"
		},
		{
			"bufferView":10,
			"componentType":5126,
			"count":622,
			"type":"VEC2"
		},
		{
			"bufferView":11,
			"componentType":5123,
			"count":3342,
			"type":"SCALAR"
		},
		{
			"bufferView":12,
			"componentType":5126,
			"count":609,
			"max":[
				2440807.25,
				-706.5889892578125,
				2563663.25
			],
			"min":[
				-2440807.25,
				-972582.0625,
				-2425881.75
			],
			"type":"VEC3"
		},
		{
			"bufferView":13,
			"componentType":5126,
			"count":609,
			"type":"VEC3"
		},
		{
			"bufferView":14,
			"componentType":5126,
			"count":609,
			"type":"VEC2"
		},
		{
			"bufferView":15,
			"componentType":5123,
			"count":3264,
			"type":"SCALAR"
		}
	],
	"bufferViews":[
		{
			"buffer":0,
			"byteLength":6204,
			"byteOffset":0,
			"target":34962
		},
		{
			"buffer":0,
			"byteLength":6204,
			"byteOffset":6204,
			"target":34962
		},
		{
			"buffer":0,
			"byteLength":4136,
			"byteOffset":12408,
			"target":34962
		},
		{
			"buffer":0,
			"byteLength":5424,
			"byteOffset":16544,
			"target":34963
		},
		{
			"buffer":0,
			"byteLength":6204,
			"byteOffset":21968,
			"target":34962
		},
		{
			"buffer":0,
			"byteLength":6204,
			"byteOffset":28172,
			"target":34962
		},
		{
			"buffer":0,
			"byteLength":4136,
			"byteOffset":34376,
			"target":34962
		},
		{
			"buffer":0,
			"byteLength":5424,
			"byteOffset":38512,
			"target":34963
		},
		{
			"buffer":0,
			"byteLength":7464,
			"byteOffset":43936,
			"target":34962
		},
		{
			"buffer":0,
			"byteLength":7464,
			"byteOffset":51400,
			"target":34962
		},
		{
			"buffer":0,
			"byteLength":4976,
			"byteOffset":58864,
			"target":34962
		},
		{
			"buffer":0,
			"byteLength":6684,
			"byteOffset":63840,
			"target":34963
		},
		{
			"buffer":0,
			"byteLength":7308,
			"byteOffset":70524,
			"target":34962
		},
		{
			"buffer":0,
			"byteLength":7308,
			"byteOffset":77832,
			"target":34962
		},
		{
			"buffer":0,
			"byteLength":4872,
			"byteOffset":85140,
			"target":34962
		},
		{
			"buffer":0,
			"byteLength":6528,
			"byteOffset":90012,
			"target":34963
		}
	],
	"samplers":[
		{
			"magFilter":9729,
			"minFilter":9987
		}
	],
	"buffers":[
		{
			"byteLength":96540,
			"uri":"L2X2Y0.bin"
		}
	]
}
